<?xml version="1.0" encoding="utf-8"?>
<!-- Generator: Adobe Illustrator 24.0.1, SVG Export Plug-In . SVG Version: 6.00 Build 0)  -->
<svg version="1.1" id="Layer_1" xmlns="http://www.w3.org/2000/svg" xmlns:xlink="http://www.w3.org/1999/xlink" x="0px" y="0px"
	 viewBox="0 0 100 100" style="enable-background:new 0 0 100 100;" xml:space="preserve">
<g>
	<path d="M71.92,30.83c0.14,0.66,0.27,1.24,0.41,1.88c0.76-0.15,1.42-0.32,2.1-0.42c3.6-0.56,6.73,0.41,9.38,2.91
		c2.92,2.75,4.64,6.07,4.74,10.14c0.09,3.36,0.05,6.72-0.83,10c-1.04,3.86-2.93,7.26-5.77,10.11c-1.9,1.91-3.99,3.53-6.81,4.1
		c0,0.4,0,0.78,0,1.16c0,2.4,0.07,4.8-0.03,7.19c-0.05,1.11-0.31,2.25-0.66,3.3c-0.42,1.24-1.36,1.95-2.7,2.18
		c-0.75,0.13-1.56,0.37-2.18,0.8c-3.18,2.24-6.8,3.29-10.55,4.02c-6.96,1.36-13.98,2.08-21.06,1.68c-3.65-0.2-7.32-0.58-10.88-1.34
		c-4.62-0.97-8.7-3.26-12.41-6.21c-1.28-1.02-1.69-2.3-1.27-3.83c0.38-1.41,0.49-2.83,0.45-4.27c-0.19-6.68,0.27-13.34,0.75-19.99
		c0.5-6.93,0.46-13.86,0.21-20.79c-0.05-1.53-0.11-3.05-0.14-4.58c-0.01-0.55-0.14-0.98-0.66-1.31c-3.36-2.16-3.22-6.09-0.93-8.89
		c1.42-1.73,3.27-2.87,5.74-2.87c0.21-0.41,0.43-0.87,0.66-1.33c1.15-2.28,2.93-3.49,5.54-3.43c1.87,0.05,3.78-0.11,5.56,0.59
		c1.21,0.47,2.33,1.15,3.5,1.72c0.33,0.16,0.72,0.41,1.04,0.36c2.55-0.35,4.82,0.47,7,1.64c0.15,0.08,0.3,0.14,0.57,0.27
		c1.38-2.43,3.39-4.13,6.05-4.9c2.62-0.76,5.24-0.97,7.6,0.84c6.07-3.96,13.37,0.07,13.53,6.36c1.36,0.44,2.7,0.79,3.97,1.33
		c0.74,0.31,1.43,0.84,2.03,1.4c2.08,1.94,2.28,4.99,0.51,7.22C75.26,29.29,73.79,30.19,71.92,30.83z M19.6,32.09
		c0,0.32,0,0.61,0,0.89c0.13,6.72,0.32,13.43-0.14,20.14c-0.51,7.48-1.05,14.97-0.85,22.48c0.03,1.16-0.17,2.33-0.27,3.57
		c3.29,2.28,6.75,4.2,10.72,4.94c2.18,0.41,4.41,0.58,6.62,0.82c3.7,0.4,7.4,0.3,11.11,0.03c4.44-0.33,8.85-0.87,13.19-1.87
		c2.4-0.55,4.67-1.37,6.72-2.79c0.74-0.52,1.6-0.88,2.44-1.23c1.18-0.49,1.22-0.46,1.24-1.78c0.03-1.7,0.04-3.4,0.02-5.1
		c-0.02-1.57-0.08-3.13-0.77-4.6c-0.43-0.91-0.21-1.82,0.49-2.54c0.69-0.71,1.56-0.99,2.51-0.62c1.51,0.6,2.8,0.2,4.03-0.74
		c3.82-2.93,6.12-6.78,6.79-11.52c0.29-2.02,0.28-4.09,0.33-6.13c0.08-2.98-1.2-5.36-3.3-7.41c-2.25-2.19-6.08-2.14-8.15-0.35
		c-0.33,0.29-0.67,0.56-1.02,0.81c-0.77,0.54-1.61,0.67-2.47,0.24c-0.9-0.45-1.37-1.21-1.36-2.21c0-0.87,0.13-1.74,0.1-2.61
		c-0.03-0.8-0.19-1.59-0.31-2.59c-1.26,1-2.45,1.57-3.88,1.54c0,0.99,0,1.89,0,2.83c1.72,0.44,2.68,1.52,2.8,3.24
		c0.15,2.3,0.25,4.61,0.37,6.91c0.06,1.13,0.11,2.27,0.15,3.4c0.16,4.62,0.49,9.24,0.12,13.86c-0.2,2.43-0.3,4.87-0.44,7.31
		c-0.05,0.83-0.05,1.66-0.14,2.48c-0.28,2.68-1.86,4.29-4.53,4.61c-0.6,0.07-1.23,0.08-1.83,0c-1.12-0.15-2.23-0.36-3.33-0.61
		c-1.61-0.37-2.32-1.43-2.17-3.06c0.07-0.78,0.12-1.57,0.11-2.35c-0.05-6.24,0.1-12.48,0.48-18.7c0.11-1.78,0.15-3.57,0.23-5.36
		c0.03-0.56-0.07-0.99-0.61-1.32c-1.04-0.65-1.44-1.71-1.63-2.87c-0.47-2.93-0.92-5.85-1.41-8.78c-0.15-0.88-0.4-1.75-0.62-2.71
		c-1.75,0.7-3.3,0.52-4.82-0.34c-1,1.18-2,2.26-3.5,2.72c-1.5,0.46-2.88-0.16-4.41-0.49c-0.08,1.68-0.21,3.24-0.22,4.8
		c-0.01,2.95-0.7,5.69-2.24,8.22c-0.16,0.26-0.29,0.68-0.2,0.94c0.52,1.43,0.53,2.9,0.59,4.39c0.07,2,0.13,4.01,0.28,6.01
		c0.11,1.39,0.46,2.76,0.53,4.15c0.25,4.8,0.02,9.59-0.35,14.38c-0.17,2.12-1.48,3.02-3.58,2.79c-2.51-0.28-4.8-1.22-7.13-2.08
		c-1.03-0.38-1.73-1.11-2.12-2.17c-0.46-1.24-0.67-2.51-0.69-3.84c-0.07-3.66-0.17-7.33-0.27-10.99c-0.06-2.05-0.17-4.09-0.23-6.14
		c-0.07-2.35-0.1-4.71-0.15-7.06c-0.05-2.4-0.16-4.79-0.15-7.19c0.01-1.44,0.76-2.23,2.15-2.57c0.45-0.11,0.9-0.19,1.38-0.29
		c-0.08-1.66-0.16-3.19-0.23-4.74C23.14,33.23,22.94,33.57,19.6,32.09z M31.48,44.39c0.11,0.01,0.23,0.01,0.34,0.02
		c1.02-1.58,1.34-3.37,1.39-5.21c0.11-3.66,0.17-7.32,0.26-10.98c0-0.13,0-0.26,0.02-0.39c0.22-1.79,2.12-2.74,3.63-1.74
		c0.6,0.4,1.07,1.01,1.54,1.57c0.36,0.43,0.6,0.96,0.95,1.41c0.94,1.22,1.81,1.22,2.67-0.04c0.56-0.83,0.98-1.76,1.55-2.57
		c1.26-1.79,3.55-1.63,4.6,0.28c0.2,0.37,0.37,0.75,0.62,1.24c0.56-0.4,1.02-0.72,1.47-1.05c1.25-0.9,2.64-0.78,3.6,0.43
		c0.42,0.53,0.77,1.19,0.92,1.85c0.57,2.37,1.06,4.76,1.54,7.15c0.3,1.51,0.54,3.03,0.86,4.82c0.25-0.45,0.41-0.61,0.45-0.81
		c0.2-0.97,0.47-1.95,0.53-2.94c0.14-2.26,0.11-4.53,0.27-6.79c0.06-0.79,0.33-1.64,0.75-2.32c0.81-1.32,2.38-1.54,3.65-0.67
		c0.28,0.19,0.53,0.43,0.85,0.68c0.7-0.66,1.39-1.26,2.02-1.91c1.05-1.08,2.22-1.24,3.58-0.67c1.46,0.61,2.36,0.24,3.21-1.29
		c-0.56-0.84-1.41-1.25-2.38-1.35c-0.73-0.07-1.48-0.01-2.22,0.03c-2.02,0.1-3.09-0.87-3.19-2.91c-0.04-0.78-0.02-1.57-0.04-2.35
		c-0.02-0.83-0.38-1.5-1-2.06c-1.61-1.45-3.83-1.4-5.22,0.28c-0.8,0.96-1.39,2.11-2.06,3.17c-0.35,0.55-0.62,1.16-1.03,1.66
		c-0.63,0.77-1.48,1.07-2.47,0.8c-0.98-0.26-1.63-0.94-1.71-1.93c-0.05-0.6,0.17-1.28,0.43-1.85c0.45-0.97,1.03-1.88,1.67-3.04
		c-0.64-0.05-1.06-0.15-1.45-0.1c-2.43,0.32-4.41,1.34-5.49,3.68c-0.22,0.47-0.41,0.96-0.64,1.43c-1.16,2.41-3.38,2.78-5.09,0.75
		c-0.96-1.14-2.15-1.71-3.52-2.11c-0.65-0.19-1.07-0.04-1.43,0.53c-0.46,0.74-0.9,1.51-1.48,2.15c-0.41,0.46-0.98,0.9-1.57,1.08
		c-0.95,0.29-1.82-0.06-2.41-0.9c-0.58-0.83-0.58-1.72-0.1-2.59c0.33-0.6,0.73-1.17,1.16-1.85c-0.59-0.25-1.04-0.55-1.53-0.64
		c-1.15-0.21-2.32-0.45-3.48-0.46c-2.22-0.02-2.31-0.62-3.33,2.11c-0.4,1.07-1.17,1.69-2.36,1.78c-0.37,0.03-0.73,0.22-1.09,0.32
		c-0.37,0.1-0.76,0.31-1.12,0.27c-0.78-0.09-1.24,0.36-1.67,0.84c-0.5,0.56-0.95,1.27-0.61,2.01c0.33,0.73,1.16,0.66,1.86,0.66
		c0.3,0,0.6-0.08,0.91-0.11c0.3-0.04,0.61-0.08,0.91-0.09c1.59-0.01,2.63,1.05,2.58,2.63c-0.01,0.35-0.09,0.69-0.1,1.04
		c-0.02,0.91,0.51,1.28,1.34,0.87c0.37-0.18,0.69-0.52,0.97-0.83c0.32-0.36,0.55-0.79,0.85-1.16c0.67-0.81,1.53-1.17,2.56-0.93
		c1.02,0.24,1.67,0.94,1.87,1.97c0.15,0.77,0.25,1.55,0.29,2.33c0.18,3.7,0.29,7.41,0.51,11.1C30.97,41.93,31.28,43.16,31.48,44.39z
		 M31.16,50.16c-0.86-0.35-1.65-0.54-2.27-0.97c-0.61-0.41-1.05-1.06-1.6-1.64c0,0.65,0,1.21,0,1.78c0.02,2.87-0.01,5.75,0.08,8.62
		c0.14,4.57,0.37,9.13,0.53,13.7c0.06,1.75,0.02,1.76,1.66,2.43c0.74,0.3,1.45,0.76,2.45,0.64c0.08-2.11,0.2-4.15,0.23-6.18
		c0.03-2.04,0.21-4.13-0.12-6.13c-0.53-3.24-0.65-6.49-0.76-9.75C31.33,51.79,31.23,50.94,31.16,50.16z M61.61,43.94
		c-0.52,0.63-0.86,1.22-1.36,1.6c-0.73,0.57-0.78,1.25-0.74,2.07c0.1,2.3,0.2,4.61,0.16,6.91c-0.09,5.66-0.27,11.31-0.4,16.97
		c-0.01,0.51,0,1.02,0,1.51c0.82,0.24,1.45,0.62,2.09,0.24C62.29,63.5,62.39,53.83,61.61,43.94z"/>
	<path d="M43.79,80.5c-0.65,0-1.31,0.05-1.96-0.01c-1.81-0.17-2.89-1.22-3.02-3.02c-0.26-3.65-0.44-7.31,0.08-10.97
		c0.12-0.86,0.12-1.74,0.1-2.61c-0.1-7.68-0.21-15.35-0.32-23.03c0-0.13-0.01-0.26,0-0.39c0.02-2.3,0.55-2.93,2.77-3.38
		c1.41-0.29,2.8-0.67,4.22-0.87c1.02-0.14,2.09-0.15,3.11-0.03c1.42,0.16,2.31,1.24,2.39,2.68c0.02,0.43-0.08,0.87-0.07,1.3
		c0.02,0.73-0.02,1.49,0.14,2.2c0.54,2.39,0.79,4.81,0.94,7.25c0.51,8.68,0.06,17.36,0.19,26.04c0,0.22-0.01,0.44,0,0.65
		c0.07,2.29-1.55,3.35-3.24,3.62c-1.76,0.28-3.54,0.42-5.31,0.62C43.8,80.54,43.8,80.52,43.79,80.5z M47.61,75.27
		c0-0.57,0.01-0.95,0-1.34c-0.12-7.97,0.25-15.95-0.2-23.93c-0.17-3.1-0.79-6.1-1.39-9.2c-0.97,0.19-1.89,0.37-2.9,0.56
		c0.07,0.64,0.14,1.2,0.19,1.76c0.13,1.56,0.38,3.13,0.37,4.69c-0.03,7.84,0.37,15.69-0.35,23.53c-0.13,1.4,0.12,2.84,0.21,4.46
		C44.97,75.61,46.21,75.46,47.61,75.27z"/>
	<path d="M68.12,50.25c0.09-1.83,0.16-3.66,0.26-5.48c0.03-0.52,0.12-1.04,0.25-1.54c0.21-0.76,0.7-1.34,1.49-1.5
		c4.39-0.89,8.13,0.23,9.85,5.02c0.7,1.95,0.29,3.96-0.05,5.94c-0.46,2.69-1.93,4.72-4.09,6.3c-0.82,0.6-1.7,1.05-2.74,1.12
		c-2.51,0.18-4.5-1.46-4.79-3.97c-0.03-0.26-0.05-0.52-0.05-0.78c0-1.7,0-3.4,0-5.1C68.22,50.25,68.17,50.25,68.12,50.25z
		 M73.09,54.83c0.19-0.02,0.24-0.02,0.27-0.04c0.11-0.07,0.22-0.14,0.31-0.22c1.9-1.77,1.98-4.08,1.7-6.4
		c-0.14-1.19-1.17-1.79-2.61-1.81C72.87,49.16,72.98,51.96,73.09,54.83z"/>
</g>
</svg>
