<?xml version="1.0" encoding="utf-8"?>
<!-- Generator: Adobe Illustrator 24.0.1, SVG Export Plug-In . SVG Version: 6.00 Build 0)  -->
<svg version="1.1" id="Layer_1" xmlns="http://www.w3.org/2000/svg" xmlns:xlink="http://www.w3.org/1999/xlink" x="0px" y="0px"
	 viewBox="0 0 100 100" style="enable-background:new 0 0 100 100;" xml:space="preserve">
<g>
	<path d="M78.45,46.78c0,1.69,0,3.11,0,4.68c0.67,0.12,1.37,0.26,2.08,0.38c3.39,0.57,6.78,1.13,10.17,1.7
		c0.45,0.08,0.9,0.18,1.33,0.33c1.44,0.5,2.17,1.79,1.79,3.12c-0.36,1.26-1.6,1.96-3.05,1.7c-1.58-0.28-3.15-0.59-4.73-0.86
		c-2.48-0.43-4.97-0.84-7.46-1.24c-0.4-0.07-0.81-0.07-1.35-0.11c-0.25,0.74-0.49,1.45-0.7,2.08c2.18,1.72,4.23,3.4,6.35,4.98
		c2.68,2.01,5.42,3.93,8.11,5.91c0.51,0.37,1.01,0.82,1.35,1.33c0.52,0.79,0.47,1.67-0.06,2.47c-0.53,0.8-1.32,1.18-2.25,1.03
		c-0.62-0.1-1.26-0.32-1.78-0.67c-2.17-1.45-4.35-2.9-6.43-4.48c-2.05-1.55-3.98-3.24-5.97-4.87c-0.39-0.32-0.79-0.62-1.23-0.97
		c-0.19,0.22-0.36,0.37-0.47,0.56c-4.03,6.83-10.22,10.78-17.62,12.96c-4.09,1.21-8.32,1.85-12.61,1.92
		c-4.04,0.07-7.94-0.64-11.71-2.05c-0.34-0.13-0.69-0.24-1.16-0.41c-0.29,0.39-0.58,0.78-0.87,1.18c-2.63,3.65-5.25,7.3-7.88,10.94
		c-0.21,0.3-0.43,0.6-0.69,0.85c-0.89,0.87-2.17,1-3.15,0.35c-1.02-0.68-1.4-2-0.85-3.17c0.21-0.45,0.54-0.85,0.83-1.26
		c2.67-3.67,5.35-7.34,8.02-11.01c0.08-0.11,0.11-0.25,0.16-0.38c-1.09-0.99-2.19-1.95-3.26-2.95c-0.37-0.35-0.74-0.3-1.14-0.13
		c-1.53,0.62-3.09,1.18-4.58,1.88c-1.99,0.94-3.92,2-5.89,2.99c-0.53,0.27-1.07,0.54-1.63,0.72c-1.05,0.32-2.09-0.14-2.58-1.06
		c-0.49-0.92-0.26-2,0.58-2.73c0.14-0.12,0.29-0.23,0.45-0.32c3.36-1.97,6.52-4.29,10.25-5.58c0.2-0.07,0.39-0.2,0.57-0.3
		c-0.82-1.85-1.61-3.64-2.44-5.52c-1.53,0-3.17-0.01-4.81,0c-1.19,0.01-2.38,0.13-3.57,0.1c-1.49-0.03-2.39-0.82-2.49-2.05
		c-0.1-1.28,0.77-2.27,2.25-2.46c2.14-0.26,4.28-0.45,6.42-0.68c0.45-0.05,0.9-0.08,1.38-0.13c0.05-0.23,0.14-0.41,0.12-0.57
		c-0.34-3.9,0.4-7.68,1.32-11.42c0.17-0.69,0.15-1.24-0.22-1.82c-0.27-0.43-0.52-0.87-0.8-1.28c-1.01-1.45-1.65-3.06-2.1-4.75
		c-0.42-1.55-0.87-3.09-1.34-4.62c-0.88-2.87-0.89-5.78-0.35-8.7c0.16-0.9,0.43-1.78,0.7-2.66c0.52-1.72,0.93-3.44,0.78-5.27
		c-0.09-1.14,0.46-2.05,1.56-2.51c1.05-0.45,2-0.18,2.8,0.56c3.06,2.83,6.12,5.67,9.15,8.53c0.79,0.75,1.5,1.6,2.12,2.26
		c2.83-0.51,5.51-1.05,8.22-1.46c4.47-0.68,8.87-0.45,13.1,1.32c0.54,0.23,1.1,0.43,1.75,0.68c0.4-0.53,0.79-1.03,1.17-1.53
		c1.57-2.04,3.17-4.05,4.69-6.12c1.03-1.4,1.98-2.85,2.55-4.54c0.55-1.63,2.46-2.15,3.85-1.12c0.5,0.38,0.93,0.89,1.31,1.4
		c2,2.74,3.96,5.52,5.97,8.24c2.99,4.04,3.91,8.62,3.56,13.53c-0.09,1.23-0.3,2.46-0.43,3.69c-0.04,0.35-0.08,0.76,0.06,1.06
		c0.52,1.11,1.12,2.19,1.75,3.4c0.79-0.28,1.6-0.57,2.4-0.86c1.72-0.63,3.43-1.28,5.16-1.89c0.56-0.19,1.15-0.32,1.74-0.37
		c1.5-0.15,2.72,0.77,2.91,2.12c0.19,1.32-0.65,2.34-2.08,2.8C84.52,44.65,81.5,45.72,78.45,46.78z M41.37,46.52
		c0.68-0.07,1.36-0.22,2.04-0.18c0.61,0.04,1.06-0.07,1.43-0.57c0.21-0.28,0.49-0.52,0.85-0.9c-1.23-0.57-1.58-1.61-1.81-2.7
		c-0.25-1.21-0.53-2.42-0.61-3.65c-0.3-4.59,1.64-7.2,5.51-9.06c1.15-0.55,2.39-0.66,3.62-0.23c3.7,1.31,6.31,3.73,7.27,7.61
		c0.47,1.91,0.73,3.87,0.99,5.82c0.18,1.34-0.82,2.55-2.13,2.8c-1.27,0.24-2.56-0.61-2.9-1.95c-0.09-0.35-0.07-0.73-0.12-1.09
		c-0.19-1.31-0.26-2.66-0.63-3.93c-0.3-1.03-0.83-2.05-1.49-2.89c-0.64-0.81-1.68-1.58-2.7-1.35c-1.28,0.29-2.18,1.31-2.46,2.7
		c-0.02,0.09-0.07,0.18-0.07,0.27c-0.01,1.05-0.07,2.11,0,3.15c0.09,1.2,0.31,2.39,0.46,3.46c0.81,0.45,1.75,0.78,2.43,1.4
		c2.22,2.02,2.59,5.82,0.95,8.34c-0.62,0.95-1.2,1.92-1.89,3.03c0.9,0.58,1.69,1.2,2.58,1.64c0.38,0.19,1.01,0.14,1.42-0.04
		c2.33-1.04,4.07-2.66,4.66-5.24c0.21-0.93,0.24-1.9,0.35-2.86c0.07-0.63,0.04-1.3,0.23-1.9c0.61-1.92,3.02-2.43,4.28-0.87
		c0.97,1.21,1.94,2.48,2.59,3.87c1.64,3.51,2.39,7.21,1.77,11.11c-0.07,0.46-0.08,0.93-0.12,1.4c0.1,0.03,0.19,0.05,0.29,0.08
		c0.73-1.14,1.46-2.28,2.12-3.31c-0.26-0.65-0.53-1.09-0.63-1.57c-0.22-1.05,0.39-1.95,1.6-2.38c0.53-0.19,0.93-0.34,0.69-1.05
		c-0.41-0.06-0.82-0.09-1.22-0.17c-1.47-0.29-2.25-1.27-2.08-2.59c0.16-1.24,1.13-1.95,2.58-1.92c0.67,0.01,1.35,0,2.09,0
		c0-0.85,0-1.63,0-2.61c-1.2,0.43-2.24,0.77-3.25,1.17c-1.25,0.49-2.66-0.09-3.19-1.36c-0.5-1.17-0.03-2.43,1.18-3
		c0.58-0.27,1.21-0.42,1.82-0.63c0.85-0.29,1.7-0.57,2.72-0.92c-0.53-0.96-0.89-1.8-1.41-2.54c-0.81-1.13-1.04-2.33-0.71-3.65
		c0.53-2.07,0.52-4.18,0.52-6.29c0-2.8-0.8-5.33-2.44-7.6c-1.26-1.75-2.53-3.49-3.81-5.23c-0.17-0.23-0.39-0.43-0.58-0.64
		c-0.16,0.13-0.24,0.18-0.3,0.25c-2.48,3.3-4.95,6.61-7.42,9.91c-0.99,1.32-2.26,1.84-3.86,1.34c-0.96-0.3-1.9-0.67-2.83-1.03
		c-2.15-0.84-4.33-1.45-6.68-1.44c-4.06,0.02-8.04,0.6-11.88,1.9c-1.62,0.55-2.97,0.24-4.21-0.83c-0.35-0.3-0.65-0.65-0.96-0.98
		c-1.09-1.17-2.13-2.41-3.29-3.51c-1.22-1.16-2.56-2.19-4-3.41c-0.37,1.33-0.7,2.46-0.99,3.59c-0.43,1.72-0.47,3.49-0.07,5.18
		c0.61,2.58,1.38,5.13,2.23,7.65c0.54,1.59,1.29,3.11,2.61,4.28c0.79,0.7,0.99,1.68,0.58,2.65c-0.91,2.18-1.25,4.5-1.61,6.8
		c-0.28,1.8-0.3,3.62-0.06,5.5c0.76,0,1.4,0.04,2.03-0.01c1.14-0.08,2.28-0.23,3.42-0.33c1.44-0.12,2.53,0.64,2.78,1.9
		c0.26,1.29-0.38,2.5-1.73,2.89c-1.04,0.3-2.16,0.38-3.25,0.5c-0.71,0.08-1.43,0.08-2.25,0.11c0.34,1.47,1.04,2.55,1.85,3.66
		c0.7-0.41,1.27-0.79,1.89-1.08c0.7-0.34,1.4-0.71,2.15-0.88c1.03-0.24,1.91,0.16,2.51,1.04c0.56,0.83,0.62,1.76,0.05,2.59
		c-0.32,0.47-0.84,0.82-1.32,1.15c-0.55,0.37-1.15,0.66-1.87,1.06c0.68,0.55,1.21,0.97,1.77,1.43c0.94-1.03,1.95-1.73,3.29-0.99
		c1.36,0.76,1.2,2.01,0.84,3.39c1.25,0.4,2.45,0.77,3.64,1.15c-0.19-0.52-0.49-0.84-0.81-1.14c-2.48-2.4-4.24-5.3-4.7-8.68
		c-0.34-2.51-0.02-5.12,0.09-7.68c0.04-1.06,0.74-1.76,1.73-2.1c1.06-0.36,2.03-0.09,2.76,0.72c0.86,0.95,1.77,1.9,2.37,3.01
		c0.77,1.41,1.85,1.75,3.3,1.64c0.73-0.06,1.19-0.3,1.35-1.12c-0.43-0.21-0.85-0.37-1.24-0.6c-0.94-0.56-1.93-1.07-2.79-1.74
		c-2.78-2.13-1.94-5.97-0.06-7.47c0.53-0.43,1.13-0.78,1.7-1.17C41.05,46.61,41.21,46.57,41.37,46.52z M56.4,69.36
		c-2.29-0.93-4.63-0.88-6.99-0.52c-1.31,0.2-2.41,0.81-3.4,1.66c-0.18,0.15-0.28,0.39-0.54,0.76C49.46,71.88,52.94,70.79,56.4,69.36
		z M59.25,64.93c0.77,0.33,1.49,0.64,2.28,0.98c1.6-2.87,1.9-5.75,1.31-8.93c-1.67,2.06-1.84,2.41-2.3,4.49
		c-0.07,0.31-0.14,0.63-0.25,0.93C59.98,63.19,59.64,63.98,59.25,64.93z M48.39,61.65c-1.9,0.69-3.05,2.02-3.9,3.88
		c1.02-0.48,1.86-0.94,2.74-1.25c0.88-0.32,1.82-0.49,2.73-0.73C50.08,62.31,49.09,62.09,48.39,61.65z M42.58,51.27
		c0.98,1.09,2.29,1.43,3.45,2c1.52-1.57,2.04-2.8,1.54-3.79C46.54,51.83,44.65,51.73,42.58,51.27z M41.93,67.97
		c-0.82,0-1.42,0-2.28,0c0.56,0.49,0.92,0.81,1.35,1.19C41.33,68.73,41.6,68.4,41.93,67.97z M37.05,63.63
		c0.07-0.02,0.13-0.04,0.2-0.06c-0.07-0.26-0.15-0.52-0.22-0.78c-0.07,0.02-0.15,0.04-0.22,0.06
		C36.89,63.11,36.97,63.37,37.05,63.63z"/>
	<path d="M40.89,46.65c-0.32,0.01-0.64,0.04-0.96,0.03c-1.41-0.06-2.35-0.83-2.51-2.25c-0.37-3.22-1.93-5.88-3.83-8.39
		c-0.5-0.66-1.06-1.1-1.97-0.94c-0.93,0.16-1.23,0.82-1.53,1.57c-0.6,1.53-0.49,3.06-0.1,4.59c0.12,0.49,0.3,0.96,0.44,1.45
		c0.21,0.71,0.52,1.29,1.14,1.8c1.14,0.92,1.07,2.85-0.02,3.93c-1.03,1.03-2.78,1.04-3.62-0.25c-2.67-4.12-4.38-8.46-2.5-13.48
		c1.5-4,4.58-4.97,8.1-4.54c1.07,0.13,2.02,0.65,2.78,1.42c3.04,3.13,5.05,6.83,6,11.1c0.32,1.46-0.03,2.71-0.94,3.84
		C41.21,46.57,41.05,46.61,40.89,46.65z"/>
	<path d="M64.72,35.47c-1.45-0.05-2.7-0.57-3.79-1.47c-0.28-0.23-0.59-0.5-0.72-0.82c-0.48-1.16-0.9-2.32-1.71-3.32
		c-0.42-0.52-0.25-1.26,0.07-1.84c0.71-1.28,1.46-2.54,2.24-3.78c0.24-0.38,0.59-0.71,0.93-1c1.35-1.12,2.86-1.11,4.05,0.19
		c1.72,1.87,3.13,3.94,3.73,6.48c0.61,2.61-0.47,4.51-3.05,5.26C65.91,35.33,65.31,35.37,64.72,35.47z M63.82,29.76
		c0.08-0.07,0.16-0.15,0.25-0.22c-0.17-0.22-0.34-0.44-0.52-0.67c-0.09,0.07-0.17,0.13-0.26,0.2C63.47,29.3,63.64,29.53,63.82,29.76
		z"/>
	<path d="M18.92,27.59c0.02-1.48,0.85-2.5,1.98-2.68c1.18-0.19,2.1,0.49,2.53,1.8c0.17,0.51,0.44,0.99,0.71,1.45
		c0.67,1.14,0.58,2.23-0.27,3c-0.82,0.75-2.04,0.79-3.03,0.02C19.6,30.23,19.06,28.89,18.92,27.59z"/>
</g>
</svg>
