<?xml version="1.0" encoding="utf-8"?>
<!-- Generator: Adobe Illustrator 24.0.1, SVG Export Plug-In . SVG Version: 6.00 Build 0)  -->
<svg version="1.1" id="Layer_1" xmlns="http://www.w3.org/2000/svg" xmlns:xlink="http://www.w3.org/1999/xlink" x="0px" y="0px"
	 viewBox="0 0 100 100" style="enable-background:new 0 0 100 100;" xml:space="preserve">
<g>
	<path d="M72.24,65.9c-0.11,0.44-0.24,0.83-0.32,1.24c-0.58,3.07-2.22,5.53-4.52,7.56c-2.9,2.55-6.27,4.1-10.07,4.88
		c-3.74,0.77-7.49,0.85-11.27,0.63c-1.54-0.09-2.99-0.49-4.34-1.24c-0.56-0.31-1.12-0.65-1.72-0.88c-3.07-1.21-5.22-3.4-6.7-6.27
		c-0.36-0.7-0.83-0.85-1.53-0.87c-4.25-0.13-8.41-0.92-12.54-1.89c-1.71-0.4-3.36-0.96-4.84-1.95c-4.81-3.23-6.17-8.28-4.27-13.72
		c0.68-1.94,1.92-3.54,3.4-4.97c3.4-3.27,7.46-5.15,12.08-5.92c0.59-0.1,1.17-0.22,1.81-0.34c0.09-0.32,0.17-0.62,0.25-0.92
		c0.57-2.22,1.54-4.26,3.04-5.99c2.9-3.33,6.4-5.79,10.7-7.02c0.57-0.16,1.17-0.27,1.73-0.47c3.24-1.15,6.38-0.73,9.6,0.27
		c4.17,1.3,7.56,3.77,10.67,6.68c1.1,1.03,1.93,2.33,2.86,3.53c0.31,0.39,0.57,0.83,0.84,1.24c2.25,0,4.46-0.15,6.65,0.04
		c2.79,0.24,5.56,0.72,8.33,1.16c0.81,0.13,1.6,0.43,2.37,0.73c4.6,1.79,6.73,5.33,6.12,10.2c-0.45,3.64-2.04,6.64-5.01,8.88
		c-2.46,1.86-5.23,3.06-8.16,3.93C75.7,64.91,73.98,65.4,72.24,65.9z M66.08,53.12c-0.8-2.98-1.54-5.92-2.39-8.83
		c-0.28-0.96-0.75-1.89-1.29-2.73c-3.1-4.83-7.51-7.85-13.05-9.22c-0.92-0.23-1.95-0.39-2.85-0.21c-3.83,0.74-7.44,2.03-10.39,4.74
		c-1.81,1.66-3.15,3.6-3.59,6.05c-0.36,1.99-0.76,3.97-0.94,5.98c-0.24,2.63,0.29,5.2,1.04,7.69C36,56.95,63.06,54.18,66.08,53.12z
		 M69.44,45.63c1.48,0.09,2.82,0.12,4.14,0.26c1.19,0.13,2.39,0.28,3.53,0.6c1.77,0.5,2.87,1.86,2.89,3.47
		c0.02,1.4-0.51,2.67-1.6,3.53c-1.11,0.87-2.32,1.66-3.59,2.29c-2.66,1.3-5.55,1.92-8.42,2.58c-4.86,1.11-9.84,1.33-14.78,1.86
		c-5.95,0.63-11.92,1.09-17.88,1.52c-3.3,0.24-6.62,0.34-9.93,0.42c-1.52,0.04-3.04-0.23-4.43-0.89c-1.84-0.86-2.54-2.48-2-4.45
		c0.36-1.33,1.13-2.41,2.04-3.39c1.62-1.76,3.64-2.94,5.78-3.95c0.45-0.21,0.89-0.43,1.33-0.64c0-0.59,0-1.07,0-1.71
		c-2.17,0.69-4.28,1.26-6.11,2.41c-1.54,0.98-3.04,2.13-4.24,3.49c-2.9,3.27-2.76,8.94,3.03,10.76c1.05,0.33,2.13,0.56,3.21,0.8
		c4.51,1,9.07,1.58,13.7,1.3c8.55-0.51,17.06-1.37,25.49-2.89c5.26-0.95,10.45-2.16,15.54-3.8c1.76-0.57,3.41-1.36,4.94-2.41
		c2.08-1.42,3.19-3.37,3.49-5.84c0.29-2.37-0.47-3.76-2.65-4.72c-0.38-0.17-0.77-0.31-1.17-0.41c-3.99-1-8.04-1.49-12.16-1.36
		c-0.12,0-0.24,0.1-0.39,0.18C69.27,44.95,69.34,45.25,69.44,45.63z M66.77,67.14c-9.55,2.01-18.89,2.94-28.4,3.73
		c0.23,0.32,0.3,0.49,0.43,0.6c2,1.78,4.5,2.6,6.9,3.63c0.16,0.07,0.36,0.05,0.55,0.06c3.4,0.14,6.79,0.19,10.16-0.53
		c2.95-0.63,5.58-1.84,7.83-3.84C65.27,69.86,66.05,68.74,66.77,67.14z M23.2,57.09c1.58,0.15,3.08,0.18,4.69-0.06
		c-0.32-1.13-0.59-2.11-0.87-3.11C25.17,54.86,23.93,55.88,23.2,57.09z M70.69,50.86c0.08,0.4,0.14,0.68,0.23,1.1
		c0.73-0.32,1.33-0.59,1.94-0.86c-0.03-0.08-0.06-0.16-0.09-0.24C72.14,50.86,71.51,50.86,70.69,50.86z"/>
	<path d="M77.07,25.69c-0.02,0.79-0.37,1.41-0.96,1.9c-1.69,1.41-3.4,2.82-5.07,4.26c-0.37,0.32-0.66,0.75-0.94,1.16
		c-0.64,0.95-1.5,1.35-2.46,1.09c-0.97-0.26-1.6-1.05-1.7-2.11c-0.08-0.82,0.14-1.57,0.66-2.19c0.5-0.6,1.06-1.15,1.61-1.7
		c1.11-1.11,2.2-2.22,3.35-3.29c0.57-0.52,1.17-1.08,1.86-1.38C75.2,22.65,77.09,23.87,77.07,25.69z"/>
	<path d="M36.39,18.27c0.05,1.97-1.39,3.18-2.86,2.72c-0.67-0.21-1.35-0.65-1.82-1.17c-1.38-1.54-2.7-3.14-3.95-4.79
		c-0.49-0.64-0.85-1.43-1.06-2.21c-0.32-1.17,0.35-2.31,1.39-2.68c1.09-0.4,2.13,0.07,2.79,1.17c0.37,0.62,0.79,1.24,1.27,1.78
		c1.02,1.13,2.15,2.15,3.12,3.31C35.82,17.04,36.16,17.86,36.39,18.27z"/>
	<path d="M23.03,34.47c0.05,1.87-1.46,2.97-2.95,2.42c-0.67-0.25-1.27-0.72-1.87-1.14c-1.68-1.19-3.33-2.43-5.02-3.62
		c-1.11-0.78-1.54-1.95-1.06-3.11c0.5-1.18,1.78-1.84,3.07-1.37c0.84,0.3,1.66,0.8,2.35,1.38c1.59,1.31,3.13,2.7,4.63,4.12
		C22.63,33.56,22.86,34.19,23.03,34.47z"/>
	<path d="M84.46,77.93c-0.74-0.04-1.52-0.4-2.12-1.08c-0.42-0.48-0.75-1.03-1.1-1.57c-0.72-1.11-1.43-2.23-2.12-3.36
		c-0.26-0.42-0.54-0.87-0.66-1.34c-0.28-1.06,0.23-2.09,1.16-2.54c0.9-0.44,1.95-0.29,2.63,0.52c0.94,1.12,1.79,2.32,2.7,3.46
		c0.33,0.41,0.7,0.83,1.14,1.12c1.09,0.75,1.53,1.77,1.18,2.95C86.94,77.19,85.84,77.96,84.46,77.93z"/>
	<path d="M19.69,85.01c-1.23-0.07-1.98-0.45-2.44-1.29c-0.47-0.88-0.44-1.79,0.15-2.6c0.32-0.44,0.75-0.8,1.18-1.13
		c1.27-1,2.42-2.07,3.13-3.58c0.52-1.12,1.73-1.52,2.78-1.11c1.1,0.43,1.76,1.63,1.28,2.82c-0.49,1.22-1.14,2.4-1.93,3.45
		c-0.76,1.01-1.75,1.87-2.72,2.71C20.67,84.67,20.02,84.84,19.69,85.01z"/>
	<path d="M51.2,18.22c0.15-0.8,0.21-1.64,0.48-2.41c0.5-1.39,1.83-2.04,3.07-1.62c1.19,0.4,1.78,1.6,1.43,3.03
		c-0.24,0.96-0.25,1.86,0.11,2.82c0.43,1.14-0.02,2.21-0.98,2.72c-0.94,0.49-2.08,0.24-2.85-0.65C51.49,21,51.3,19.65,51.2,18.22z"
		/>
	<path d="M37.37,85.72c0.18-0.8,0.25-1.64,0.56-2.38c0.49-1.2,1.72-1.75,2.8-1.4c1.15,0.37,1.63,1.36,1.47,2.75
		c-0.07,0.66-0.02,1.37,0.14,2.01c0.39,1.58-0.04,2.68-1.34,3.15c-1.29,0.47-2.62-0.23-3.16-1.67c-0.1-0.26-0.19-0.52-0.23-0.79
		c-0.07-0.55-0.1-1.1-0.14-1.64C37.43,85.74,37.4,85.73,37.37,85.72z"/>
</g>
</svg>
