<?xml version="1.0" encoding="utf-8"?>
<!-- Generator: Adobe Illustrator 24.0.1, SVG Export Plug-In . SVG Version: 6.00 Build 0)  -->
<svg version="1.1" id="Layer_1" xmlns="http://www.w3.org/2000/svg" xmlns:xlink="http://www.w3.org/1999/xlink" x="0px" y="0px"
	 viewBox="0 0 100 100" style="enable-background:new 0 0 100 100;" xml:space="preserve">
<g>
	<path d="M56.88,73.69c-1.66,2.38-4.8,4.41-7.76,4.39c-3.19-0.03-5.89-1.96-8.12-4.06c-0.95-0.9-2.37,0.55-1.42,1.45
		c0.73,0.68,1.5,1.35,2.32,1.94c0.02,0.08,0.04,0.17,0.08,0.25c0.75,1.66,1.53,3.11,3.2,4.03c1.53,0.84,3.1,1.15,4.84,1.03
		c3.11-0.2,7.07-2.9,7.13-6.27c0.56-0.55,1.06-1.15,1.49-1.76C59.39,73.62,57.62,72.63,56.88,73.69z"/>
	<path d="M46.26,27.41c1.16-0.01,1.14-1.81-0.02-1.8C45.08,25.62,45.1,27.42,46.26,27.41z"/>
	<path d="M45.61,33.45c1.16-0.01,1.14-1.81-0.02-1.8C44.43,31.66,44.45,33.46,45.61,33.45z"/>
	<path d="M53.87,27.59c1.16-0.01,1.14-1.81-0.02-1.8C52.69,25.8,52.71,27.6,53.87,27.59z"/>
	<path d="M55.23,31.98c1.16-0.01,1.14-1.81-0.02-1.8C54.05,30.2,54.07,32,55.23,31.98z"/>
	<path d="M28.35,75.07c-0.22,0.06-0.42,0.22-0.55,0.5c-0.19,0.42-0.2,0.86-0.39,1.28c-0.32,0.68-1.11,0.97-1.81,1.14
		c-1.04,0.26-2.12,0.08-3.14-0.13c-2.25-0.46-4.15-2.47-4.55-4.74c-0.44-2.49,1.64-5.25,4.25-5.27c1.07-0.01,2.59,0.22,3.51,0.82
		c0.73,0.48,1.08,1.28,1.34,2.09c0.07,0.28,0.14,0.55,0.23,0.82c0.17,0.65,0.78,0.81,1.27,0.65c0.49-0.14,0.88-0.59,0.68-1.21
		c-0.06-0.22-0.12-0.44-0.19-0.66c-0.19-0.77-0.32-1.55-0.56-2.3c-0.43-1.33-1.04-2.58-1.69-3.8c-1.4-2.63-3.88-4.61-6.96-4.59
		c-3.07,0.02-5.82,1.32-7.9,3.56c-2.24,2.41-3.5,6.28-2.27,9.48c0.46,1.21,2.42,0.66,1.95-0.56c-0.96-2.5-0.07-5.3,1.6-7.27
		c-0.09,0.86-0.02,1.74,0.24,2.61c0.27,0.91,0.7,1.86,1.36,2.56c0.27,0.28,0.59,0.56,0.92,0.77c0.09,0.06,0.2,0.12,0.3,0.18
		c-0.12,0.53-0.18,1.08-0.15,1.63c0.12,2.35,1.47,4.57,3.38,5.94c-0.73,1.25-0.55,3.02,0.2,4.36c-0.13-0.03-0.27-0.05-0.4-0.08
		c-1.67-0.38-2.61-1.26-3.93-2.23c-1.05-0.77-2.05,1-1,1.76c0.83,0.6,1.49,1.29,2.43,1.74c0.91,0.44,1.92,0.71,2.92,0.84
		c2.05,0.26,3.98,0.21,5.91-0.6c1.91-0.8,3.63-2.07,4.43-4.04c0.61-1.5,1.15-3.85-0.16-5.16C29.19,74.77,28.7,74.81,28.35,75.07z"/>
	<path d="M89.35,54.23c-5.68-3.59-13.37-3.45-18.77,0.16c-0.08-1.37-0.27-2.75-0.42-4.1c-0.19-1.82-0.42-3.64-0.68-5.46
		c-0.14-1.04-0.35-2.06-0.57-3.08c1.8-0.17,3.61-0.22,5.41-0.39c0.08-0.01,0.16-0.03,0.23-0.05c0.22,0.01,0.44-0.08,0.62-0.32
		c0.85-1.1,1.1-2.69,1.41-4.03c0.16-0.71,0.37-2.26,0.05-3.02c-0.07-0.49-0.5-0.97-1.13-0.86c-2.38,0.43-4.76,0.99-7.09,1.65
		c-0.19,0.05-0.38,0.11-0.58,0.16c0.08-0.43,0.15-0.86,0.13-1.3c-0.04-1.07-0.2-2.16-0.45-3.24c2.16,0.07,4.33,0.3,6.49,0.28
		c1.16-0.02,1.14-1.82-0.02-1.8c-2.32,0.03-4.66-0.25-6.99-0.29c-0.63-1.86-1.52-3.64-2.57-5.19c-0.13-0.19-0.26-0.37-0.39-0.55
		c1.64-0.79,3.29-1.58,4.93-2.37c1.74-0.84,3.48-1.65,5.26-2.39c0.95-0.4,1.88-0.84,2.83-1.23c0.67-0.27,1.49-0.43,2-0.97
		c0.79-0.85-0.49-2.11-1.29-1.26c-0.38,0.41-1.54,0.63-2.09,0.87c-0.98,0.44-1.97,0.83-2.95,1.26c-1.64,0.71-3.24,1.49-4.85,2.26
		c-1.66,0.8-3.33,1.6-4.99,2.4c-0.67-0.77-1.39-1.5-2.15-2.16c-0.36-0.31-0.74-0.63-1.13-0.92c0.64-1.82,0.53-3.89-0.54-5.6
		c-1.12-1.78-2.96-2.81-4.91-3.51c-1-0.36-2.01-0.53-3.07-0.59c-0.13-0.01-0.26-0.01-0.39-0.01c-0.07-0.01-0.15-0.02-0.23-0.02
		c-0.75,0.01-1.52,0.09-2.29,0.23c-0.01,0-0.01,0-0.02,0c-0.13,0-0.24,0.03-0.34,0.07c-3.13,0.69-6.11,2.54-7.09,5.68
		c-0.32,1.03-0.37,2.07-0.19,3.06c-0.05,0.03-0.1,0.05-0.15,0.08c-0.81,0.49-1.57,1.12-2.27,1.75c-0.63,0.57-1.23,1.19-1.8,1.84
		c-1.41-0.76-2.82-1.53-4.26-2.22c-1.77-0.84-3.44-1.86-5.18-2.75c-0.94-0.48-1.9-0.92-2.84-1.39c-0.71-0.35-1.48-0.72-2.16-1.11
		c-1.01-0.58-1.9,0.98-0.89,1.57c0.68,0.39,1.46,0.77,2.16,1.11c0.94,0.46,1.9,0.91,2.84,1.39c1.86,0.94,3.66,1.99,5.53,2.93
		c1.23,0.62,2.45,1.26,3.67,1.91c-0.23,0.31-0.45,0.63-0.66,0.96c-0.7,1.08-1.32,2.26-1.83,3.5c-2.61,0.03-5.21,0.06-7.82,0.08
		c-1.16,0.01-1.14,1.81,0.02,1.8c2.38-0.03,4.77-0.05,7.15-0.08c-0.42,1.36-0.7,2.76-0.8,4.13c-1.66,0.54-3.32,1.11-4.99,1.61
		c-2.03,0.6-4.22,1.14-6.14,2.05c-1.05,0.5-0.12,2.04,0.93,1.55c1.9-0.9,4.11-1.36,6.11-1.98c1.39-0.43,2.77-0.89,4.15-1.34
		c0.11,0.57,0.26,1.13,0.27,1.7c0.01,0.96-0.48,2.02-0.66,2.97c-0.35,1.86-0.77,3.7-1,5.59c-0.21,1.82-0.41,3.65-0.56,5.47
		c-0.11,1.34-0.28,2.71-0.33,4.07c-4.85-3.07-11.41-3.29-16.84-0.79c-5.37,2.47-8.57,7.96-9.4,13.67
		C1.95,73.4,3.09,79.66,6.53,84.39c3.61,4.96,9.45,7.32,15.51,7.03c4.57-0.22,9.13-1.96,12.24-5.13c0.21,0.14,0.42,0.29,0.63,0.43
		c1.34,0.88,2.77,1.63,4.26,2.23c2.96,1.21,6.14,1.84,9.34,1.86c5.78,0.03,12.14-1.9,16.6-5.74c6.48,7.64,20.68,7.72,27.35-0.01
		C99.79,76.56,99.38,60.56,89.35,54.23z M68.6,36.56c2.06-0.63,4.2-1.14,6.33-1.55c-0.01,0.11-0.01,0.22-0.02,0.33
		c-0.02,0.42-0.03,0.86-0.1,1.27c-0.15,0.82-0.33,2.2-0.81,2.96c-1.84,0.16-3.71,0.21-5.55,0.41c-1.15,0.13-2.31,0.1-3.46,0.2
		c-0.86,0.08-1.72,0.2-2.58,0.24c-0.16-0.71-0.31-1.41-0.46-2.12c1.05-0.16,2.1-0.49,3.12-0.75C66.25,37.26,67.43,36.92,68.6,36.56z
		 M63.21,53.74c-0.08,0.07-0.15,0.15-0.21,0.25c-0.6,1-2.04,1.23-3.1,1.49c-1.09,0.26-2.2,0.51-3.31,0.69
		c-1.04,0.17-2.08,0.21-3.12,0.31c-0.86,0.08-1.82,0.14-2.67-0.06c0.17-1.31,0.02-2.79,0.06-3.99c0.06-2.34-0.04-4.69,0.01-7.04
		c0.07-3.43,0.25-6.85,0.4-10.27c0.56,0.78,1.27,1.47,2.16,2.02c1.91,1.17,4.21,1.35,6.33,0.79c0.53,2.56,1.17,5.1,1.72,7.65
		c0.33,1.52,0.74,3.03,1.07,4.55c0.17,0.78,0.29,1.56,0.42,2.34C63.04,52.83,63.22,53.34,63.21,53.74z M38.62,43.59
		c0.12-0.78,0.23-1.56,0.36-2.34c0.09-0.53,0.12-1.2,0.27-1.75c2.25,0.26,4.73-0.49,6.64-1.61c1.38-0.81,2.47-1.89,3.3-3.14
		c-0.16,3.34-0.36,6.68-0.4,10.02c-0.03,2.22-0.09,4.44-0.03,6.66c0.03,0.95,0.01,1.91-0.03,2.86c-0.02,0.44-0.03,0.88-0.06,1.31
		c-0.01,0.21,0.01,0.58,0,0.87c-0.95,0.23-1.91,0.15-2.9,0.23c-1.03,0.08-2.05-0.01-3.08-0.04c-1.01-0.03-2.04-0.05-3.05-0.14
		c-0.49-0.04-1.03-0.11-1.49-0.27c-0.31-0.11-1.38-0.58-1.41-0.64c0,0.01,0.11-1.26,0.11-1.44c0.01-0.73,0.07-1.45,0.16-2.17
		c0.19-1.43,0.51-2.85,0.82-4.26C38.16,46.38,38.41,44.99,38.62,43.59z M46.56,63.81c0.94-0.27,2.75-0.44,3.67,0.27
		c-1.11,1.18-1.8,2.75-1.91,4.43c-0.09,1.33,1.98,1.26,2.07-0.06c0.22-3.29,3.97-5.6,6.58-3.32c-0.22,0.6-0.47,1.18-0.77,1.72
		c-1.27,2.33-3.87,4.31-6.59,4.24c-1.42-0.04-2.58-0.17-3.71-1.1c-0.89-0.74-1.55-1.55-2.01-2.63c-0.11-0.25-0.2-0.5-0.29-0.75
		C43.93,65.26,45.28,64.17,46.56,63.81z M48.4,10.73c1.03-0.17,2.1-0.19,3.12-0.09c1.48,0.15,3.56,0.56,4.61,1.7
		c1.65,1.78-0.49,2.46-2.26,3.02c-1.42,0.45-2.85,0.48-4.33,0.49c-1.43,0.01-3.3-0.23-4.49-1.1c-1.89-1.39-0.25-2.84,1.31-3.46
		C47.02,11.03,47.71,10.85,48.4,10.73z M92.01,82.35c-3.06,4.47-8.24,6.55-13.55,6.44c-6.15-0.12-12.45-3.32-14.18-9.57
		c-0.2-0.74-0.97-0.85-1.49-0.56c-0.16,0.08-0.31,0.21-0.42,0.4c-0.92,1.56-0.72,3.79-0.04,5.39c0.02,0.06,0.05,0.11,0.08,0.15
		c-3.9,2.74-8.94,4.14-13.58,4.18c-2.85,0.02-5.67-0.48-8.34-1.48c-1-0.38-1.98-0.83-2.92-1.35c1.05-1.8,1.13-4.33,0.28-6.18
		c0-1.06-1.7-1.41-1.99-0.24c-2.82,11.14-19.3,12.91-26.48,5.16c-6.64-7.16-6.9-21.48,1.42-27.53c3.15-2.29,7.3-3.17,11.14-2.79
		c4.63,0.45,8.65,3.27,10.64,7.47c0.56,1.18,2.3,0.13,1.74-1.04c-0.87-1.83-2.05-3.36-3.45-4.6c0.09-0.14,0.15-0.32,0.14-0.53
		c-0.03-3.13,0.51-6.33,0.81-9.45c0.17-1.77,0.51-3.49,0.86-5.23c0.32-1.59,1.1-3.47,0.77-5.09c-0.1-0.51-0.16-1.03-0.19-1.55
		c0,0,0.01,0,0.01,0c3.4-1.09,6.83-2.29,10.31-3.1c1.13-0.26,0.63-2-0.5-1.73c-3.3,0.77-6.53,1.91-9.76,2.93
		c0.13-1.18,0.41-2.35,0.81-3.48c1.03-0.01,2.07-0.02,3.1-0.03c1.16-0.01,1.14-1.81-0.02-1.8c-0.78,0.01-1.56,0.02-2.34,0.03
		c0.23-0.48,0.47-0.95,0.73-1.4c0.42-0.72,0.87-1.41,1.37-2.07c0.9,0.47,1.81,0.91,2.74,1.32c0.85,0.38,1.74,0.96,2.66,1.16
		c1.13,0.25,1.59-1.49,0.46-1.74c-0.81-0.18-1.66-0.75-2.44-1.08c-0.77-0.33-1.51-0.7-2.25-1.08c0.23-0.25,0.46-0.5,0.7-0.74
		c0.64-0.63,1.32-1.21,2.05-1.75c0.1-0.07,0.2-0.14,0.3-0.2c0.82,1.52,2.24,2.72,4.04,3.23c1.77,0.5,3.82,0.74,5.64,0.54
		c1.89-0.21,3.9-0.46,5.6-1.37c0.86-0.46,1.59-1.11,2.15-1.87c0.43,0.34,0.85,0.69,1.25,1.06c0.37,0.35,0.73,0.71,1.07,1.09
		C59.6,22.84,58.22,23.4,57,24.2c-0.97,0.63-0.05,2.18,0.93,1.55c1.3-0.85,2.78-1.44,4.22-2.07c0.39,0.52,0.76,1.06,1.09,1.62
		c0.6,0.99,1.14,2.07,1.57,3.2c-1.93-0.05-3.85-0.1-5.79-0.08c-1.16,0.01-1.14,1.81,0.02,1.8c2.13-0.02,4.24,0.05,6.36,0.1
		c0.45,1.71,0.62,3.48,0.32,5.18c-0.23,0.07-0.46,0.13-0.69,0.2c-0.61,0.18-1.25,0.39-1.91,0.56c0.11-0.09,0.23-0.18,0.33-0.28
		c1-0.88-0.51-2.3-1.51-1.42c-2.1,1.84-5.51,2.24-7.82,0.59c-2.24-1.61-2.69-4.61-2.82-7.18c-0.06-1.26-1.93-1.28-2.06-0.14
		c-0.03,0.09-0.05,0.19-0.06,0.3c-0.11,2.93-1.26,5.88-3.73,7.6c-2.14,1.49-6.54,3.02-8.52,0.45c-0.81-1.05-2.58,0.04-1.76,1.1
		c0.6,0.77,1.32,1.32,2.11,1.69c-0.39,1.32-0.47,2.82-0.67,4.14c-0.26,1.67-0.58,3.31-0.94,4.96c-0.36,1.64-0.67,3.29-0.81,4.97
		c-0.07,0.81-0.07,1.62-0.09,2.43c-0.01,0.48,0.01,1.02,0.3,1.43c0.37,0.51,1,0.66,1.54,0.91c0.55,0.26,1.03,0.49,1.63,0.6
		c0.9,0.17,1.82,0.23,2.74,0.27c-0.29,3.53-0.32,7.22,1.45,10.4c0.68,1.23,1.62,2.15,2.75,2.96c1.37,0.99,3.04,1.11,4.68,1.11
		c3.36,0,6.27-2.3,7.98-5.04c0.98-1.56,1.57-3.5,1.83-5.32c0.14-0.95,0.15-1.94,0.15-2.9c0-0.71,0.12-1.53-0.12-2.22
		c1.46-0.29,2.97-0.67,4.08-1.54c0.09-0.03,0.18-0.06,0.26-0.12c1.35-0.82,1.34-2.05,1.05-3.48c-0.38-1.88-0.74-3.76-1.19-5.62
		c-0.38-1.56-0.75-3.14-1.11-4.71c0.68-0.05,1.34-0.14,2.03-0.2c0.68-0.06,1.37-0.08,2.05-0.11c0.27,1.24,0.53,2.48,0.67,3.74
		c0.35,3.18,1,6.42,1.03,9.62c0,0.23,0.07,0.41,0.17,0.56c-1.38,1.27-2.53,2.81-3.35,4.64c-0.53,1.18,1.23,2.19,1.76,1
		c3.41-7.61,13.01-9.76,20.13-6.08c4.56,2.36,7.15,7.13,7.89,12.08C95.95,72.55,94.93,78.08,92.01,82.35z"/>
	<path d="M79.92,59.03c-3.09,0.04-5.5,2.08-6.86,4.73c-0.63,1.23-1.21,2.5-1.61,3.84c-0.09,0.29-0.15,0.59-0.22,0.88
		c-0.31,0.66-0.52,1.37-0.7,2.1c-0.21,0.84,0.59,1.35,1.24,1.23c0.4-0.01,0.8-0.22,0.95-0.71c0.2-0.66,0.32-1.36,0.47-2.03
		c0.2-0.35,0.46-0.67,0.81-0.91c0.88-0.6,2.28-0.82,3.31-0.88c2.68-0.15,4.93,2.57,4.54,5.16c-0.34,2.23-2.13,4.22-4.28,4.8
		c-1.05,0.29-2.22,0.46-3.31,0.23c-0.59-0.12-1.41-0.39-1.74-0.92c-0.2-0.32-0.25-0.68-0.35-1.03c0.03-0.8-1.02-1.52-1.73-0.78
		c-1.28,1.34-0.69,3.67-0.05,5.16c0.83,1.95,2.59,3.18,4.51,3.95c1.95,0.77,3.88,0.78,5.92,0.47c1-0.15,2-0.45,2.9-0.9
		c0.94-0.47,1.58-1.17,2.4-1.79c1.03-0.78,0-2.53-1.04-1.74c-1.26,0.96-2.16,1.82-3.74,2.28c-0.26,0.07-0.52,0.13-0.8,0.18
		c0.75-1.36,0.91-3.17,0.14-4.42c1.88-1.41,3.18-3.66,3.25-6.02c0.01-0.52-0.04-1.03-0.16-1.53c0.14-0.07,0.29-0.16,0.35-0.19
		c0.33-0.2,0.66-0.46,0.94-0.74c0.71-0.73,1.16-1.75,1.42-2.73c0.24-0.87,0.29-1.75,0.18-2.6c1.7,1.94,2.66,4.69,1.75,7.22
		c-0.44,1.23,1.52,1.74,1.96,0.52c1.16-3.22-0.18-7.07-2.47-9.43C85.76,60.23,83,58.98,79.92,59.03z"/>
	<path d="M78.33,40.42c0.88-2.25,0.97-4.37,0.51-6.73c-0.23-1.14-1.96-0.64-1.73,0.5c0.41,2.05,0.24,3.83-0.52,5.77
		C76.17,41.04,77.91,41.49,78.33,40.42z"/>
	<path d="M79.66,36.23c-0.03,0.58-0.2,1.15-0.37,1.7c-0.34,1.11,1.41,1.57,1.74,0.46c0.39-1.29,0.42-2.43,0.36-3.76
		c-0.06-1.16-1.86-1.14-1.8,0.02C79.62,35.18,79.69,35.7,79.66,36.23z"/>
</g>
</svg>
