<?xml version="1.0" encoding="utf-8"?>
<!-- Generator: Adobe Illustrator 24.0.1, SVG Export Plug-In . SVG Version: 6.00 Build 0)  -->
<svg version="1.1" id="Layer_1" xmlns="http://www.w3.org/2000/svg" xmlns:xlink="http://www.w3.org/1999/xlink" x="0px" y="0px"
	 viewBox="0 0 100 100" style="enable-background:new 0 0 100 100;" xml:space="preserve">
<g>
	<path d="M29.69,70.98c1.25-0.85,2.48-1.7,3.73-2.55c-0.3-1.53-1.35-2.29-2.67-2.57c-1.96-0.42-3.86-1-5.65-1.89
		c-0.53-0.26-0.89-0.06-1.34,0.19c-1.23,0.68-2.46,1.39-3.75,1.93c-2.74,1.15-5.02,0.64-6.97-1.6c-0.78-0.9-1.43-1.97-1.93-3.07
		c-1.29-2.86-0.81-4.61,1.61-6.47c-0.07-6.92,3.47-9.02,8.01-8.96c0-0.57,0.01-1.13,0-1.7c-0.09-4.24,0.17-8.47,0.94-12.63
		c0.41-2.18,1.12-4.33,1.88-6.41c0.94-2.54,2.73-4.46,4.99-5.93c0.73-0.48,1.48-0.94,2.26-1.33c6.05-3.05,12.29-5.61,18.86-7.31
		c2.13-0.55,4.29-0.87,6.5-0.55c2.46,0.36,4.66,1.38,6.59,2.92c3.31,2.65,6.35,5.6,9.15,8.78c2.46,2.8,3.9,6.02,3.73,9.84
		c-0.01,0.28,0.03,0.57,0.06,0.98c0.51,0,0.98,0.04,1.44-0.01c2.46-0.23,4.55,0.38,5.88,2.63c0.3,0.5,0.75,0.53,1.22,0.65
		c0.98,0.25,1.99,0.48,2.92,0.88c1.72,0.73,2.61,2.1,2.4,3.93c-0.2,1.68-0.52,3.37-1.02,4.98c-0.63,2.05-2.16,3.45-4,4.45
		c-1.49,0.82-3.01,0.65-4.44-0.24c-0.41-0.25-0.78-0.56-1.31-0.95c-2.33,2.47-5.15,4.25-8.4,5.63c1.33,3.46,2.39,6.88-0.67,10.08
		c1.34,0.58,2.42,1.18,3.68,0.08c1.02-0.89,2.24-1.54,3.29-2.4c3.15-2.58,7.21-1.42,8.61,2.2c0.48,1.24,0.79,2.63,0.81,3.95
		c0.03,2.45-1.21,4.25-3.45,5.3c-0.56,0.27-1.16,0.47-1.79,0.72c0.5,3.4-1.28,5.52-3.86,7.29c-2.22,1.52-4.53,2.61-7.28,2.64
		c-3.61,0.05-5.6-2.37-4.77-5.89c0.04-0.19,0.09-0.37,0.17-0.71c-0.43-0.2-0.84-0.42-1.28-0.59c-4.68-1.79-9.36-3.55-14.02-5.38
		c-1.06-0.42-1.76-0.17-2.59,0.55c-1.49,1.32-3.1,2.5-4.67,3.73c-2.07,1.61-4.15,3.21-6.31,4.88c0.06,0.32,0.15,0.69,0.2,1.06
		c0.39,2.6-0.35,4.74-2.64,6.16c-0.9,0.56-1.89,1.03-2.89,1.34c-4.23,1.3-7.78-1.19-8.1-5.61c-0.05-0.72-0.01-1.45-0.01-2.16
		c-0.71-0.33-1.37-0.55-1.93-0.91c-0.81-0.52-1.63-1.07-2.33-1.74c-3.17-3.05-1.65-7.57,1.51-9.03c2.87-1.31,5.74-1.27,8.57,0.17
		c0.17,0.09,0.33,0.21,0.5,0.31C29.32,70.79,29.49,70.87,29.69,70.98z M46.43,64.61c2.25-0.58,2.73-1.15,2.65-3.2
		c-0.04-0.91-0.26-1.82-0.41-2.73c-0.07-0.43-0.2-0.86-0.2-1.29c-0.01-1.2,0.72-2.16,1.85-2.52c1.09-0.34,2.3,0.05,2.93,1.06
		c0.33,0.53,0.54,1.14,0.7,1.74c0.3,1.08,0.5,2.18,0.77,3.26c0.14,0.56,0.3,1.14,0.55,1.66c0.44,0.88,1.22,0.9,1.84,0.13
		c0.4-0.5,0.26-0.99,0.11-1.52c-0.4-1.4-0.89-2.79-1.15-4.21c-0.27-1.45,0.47-2.58,1.71-3.02c1.23-0.43,2.46,0.04,3.22,1.31
		c1.03,1.72,1.98,3.48,1.88,5.59c-0.01,0.24,0.03,0.49,0.09,0.72c0.18,0.64,0.61,0.82,1.24,0.64c1.52-0.43,2.38-1.85,1.99-3.35
		c-0.15-0.56-0.34-1.12-0.55-1.66c-0.53-1.41-1.08-2.81-1.63-4.21c-0.34-0.87-0.37-1.76,0.11-2.54c0.78-1.25,1.05-2.59,1.01-4.03
		c-0.01-0.29,0.08-0.58,0.13-0.86c0.39-1.88,1.16-3.6,2.25-5.18c1.31-1.9,2.21-3.93,2.61-6.26c0.65-3.82-0.29-7.03-3.04-9.71
		c-2.26-2.2-4.53-4.41-6.85-6.56c-2.56-2.37-5.53-3.02-8.92-2.13c-6.33,1.66-12.34,4.13-18.19,7.02c-3.01,1.49-4.82,3.83-5.61,7.04
		c-0.12,0.47-0.24,0.94-0.35,1.42c-1.1,4.98-1.21,10.03-1.16,15.09c0.01,0.66,0.31,1.11,0.8,1.46c2.15,1.55,3.85,3.55,5.58,5.53
		c0.93,1.06,1.86,2.17,2.99,2.97c1.18,0.84,1.6,1.81,1.58,3.2c-0.02,1.41,0.09,2.82,0.24,4.22c0.11,0.98,0.95,1.54,1.86,1.4
		c0.74-0.12,1.06-0.6,0.92-1.69c-0.14-1.11-0.3-2.23-0.64-3.29c-0.51-1.56,0.21-3.21,1.72-3.66c1.49-0.44,2.8,0.36,3.42,2.14
		c0.41,1.19,0.73,2.42,1.11,3.62C45.84,62.99,46.13,63.76,46.43,64.61z M56.91,68.91c0.46,0.18,0.95,0.38,1.44,0.56
		c2.58,1,5.17,1.96,7.73,3.01c1.21,0.5,2.39,1.1,3.49,1.79c1.38,0.86,1.7,1.92,1.27,3.51c-0.09,0.36-0.15,0.72-0.25,1.26
		c1.91-0.27,3.1-1.41,4.39-2.51c-1.25-0.25-2.47-0.38-3.21-1.52c-0.8-1.23-0.41-2.4,0.34-3.69c-1.1-0.4-2.08-0.78-3.08-1.12
		c-1.56-0.53-3.25-0.81-4.66-1.6c-1.24-0.7-2.52-1.15-3.68-1.59C59.37,67.67,58.17,68.27,56.91,68.91z M75.04,38.04
		c-1.29,2.22-2.54,4.29-3.72,6.41c-0.73,1.32-1.12,2.75-0.82,4.44c0.42-0.25,0.78-0.39,1.06-0.63c1.12-0.94,2.18-1.94,3.32-2.85
		c0.94-0.75,1.9-1.53,2.97-2.08c1.53-0.78,2.9-0.43,4.1,0.81c0.26,0.27,0.52,0.52,0.81,0.82c1.08-1.08,1.24-2.33,1.28-3.58
		c-0.93-0.47-1.36,0.22-1.9,0.57c-0.98,0.63-2.01,0.74-3.03,0.14c-1.03-0.6-1.39-1.57-1.29-2.73c0.04-0.42,0.11-0.84,0.18-1.32
		C76.89,38.04,75.88,38.04,75.04,38.04z M42.39,69.74c-1.23,0.27-2.21,0.47-3.19,0.71c-0.27,0.07-0.52,0.25-0.74,0.42
		c-1.64,1.29-3.29,2.58-4.92,3.89c-1.47,1.19-2.92,2.39-5.06,2.52c0.71,1.36,0.35,2.55-0.01,3.79c-0.27,0.9-0.26,1.9-0.27,2.86
		c0,0.46,0.35,0.85,0.89,0.71c0.83-0.21,1.71-0.39,2.18-1.3c-0.1-0.24-0.19-0.46-0.3-0.67c-1.27-2.53-0.86-4.01,1.49-5.55
		c0.97-0.64,1.93-1.31,2.87-2c1.79-1.34,3.56-2.7,5.34-4.06C41.18,70.67,41.7,70.27,42.39,69.74z M21.08,59.32
		c1.13-1.31,2.48-1.44,3.91-0.94c1.23,0.42,2.43,0.95,3.62,1.48c1.09,0.49,2.15,1.02,3.38,1.07c0.1-1.11,0.15-1.2-0.32-1.5
		c-0.97-0.59-1.58-2.06-2.78-1.86c-1.87,0.31-3.67,0.16-5.5,0c-2.42-0.22-3.36-1.19-3.41-3.61c-0.02-0.86-0.03-1.73-0.64-2.64
		c-0.34,0.29-0.72,0.47-0.87,0.76c-0.5,0.99-0.52,2.07-0.2,3.12c0.1,0.33,0.43,0.69,0.75,0.83C20.45,56.65,21.08,57.72,21.08,59.32z
		 M75.81,69.61c0.03,0.12,0.06,0.24,0.09,0.37c1.36-0.26,2.73-0.47,4.08-0.81c0.83-0.21,0.97-0.54,0.79-1.42
		c-0.09-0.43-0.28-0.83-0.44-1.3C78.7,67.58,77.25,68.6,75.81,69.61z M22.26,75.23c1.12,2,2.69,1.02,4.17,0.65
		C25.78,74.43,23.95,74.14,22.26,75.23z"/>
	<path d="M49.1,42.99c0.52-0.45,0.96-0.9,1.47-1.27c2.34-1.68,4.88-0.55,5.22,2.32c0.15,1.27,0.12,2.59-0.49,3.71
		c-0.85,1.57-1.86,3.06-2.9,4.52c-0.28,0.39-0.85,0.67-1.34,0.81c-3.21,0.92-7.33-0.95-8.78-3.96c-0.8-1.66-0.78-3.32,0.34-4.83
		c1.12-1.5,2.68-2.02,4.51-1.73C47.76,42.67,48.37,42.83,49.1,42.99z"/>
	<path d="M57.13,38.43c-1.58-0.14-3.32-0.56-4.88-1.54c-2.77-1.74-3.35-4.7-1.3-7.23c0.93-1.15,2.11-2.16,3.32-3.03
		c1.59-1.14,3.04-0.98,4.5,0.3c1.02,0.89,2.1,1.76,2.9,2.83c1.63,2.17,1.23,5.44-0.72,7.33C59.97,38.04,58.8,38.48,57.13,38.43z
		 M55.22,32.56c0.77,0.21,1.34,0.37,2.02,0.56C56.57,31.63,56.21,31.5,55.22,32.56z"/>
	<path d="M29.13,37.32c-0.02-0.79,0.4-1.79,1.14-2.69c0.86-1.05,2.03-1.68,3.24-2.15c0.61-0.24,1.47-0.15,2.1,0.08
		c1.04,0.38,2.04,0.93,2.96,1.55c2.13,1.44,2.87,3.97,1.93,6.29c-0.89,2.2-3.19,3.38-5.73,2.97c-1.33-0.21-2.53-0.69-3.58-1.52
		C29.86,40.8,29.13,39.43,29.13,37.32z"/>
</g>
</svg>
