<?xml version="1.0" encoding="utf-8"?>
<!-- Generator: Adobe Illustrator 24.0.1, SVG Export Plug-In . SVG Version: 6.00 Build 0)  -->
<svg version="1.1" id="Layer_1" xmlns="http://www.w3.org/2000/svg" xmlns:xlink="http://www.w3.org/1999/xlink" x="0px" y="0px"
	 viewBox="0 0 100 100" style="enable-background:new 0 0 100 100;" xml:space="preserve">
<g>
	<path d="M36.13,34.37c-0.22-1.15-0.45-2.32-0.68-3.51c-0.31-0.08-0.61-0.1-0.84-0.25c-0.44-0.28-1.02-0.54-1.22-0.97
		c-0.59-1.21-1.31-2.35-1.52-3.74c-0.29-1.94-0.72-3.85-1.16-5.76c-0.24-1.05-0.17-2.08-0.05-3.11c0.09-0.83,0.69-1.35,1.5-1.52
		c1.51-0.32,3.03-0.66,4.56-0.86c0.76-0.1,1.57,0.03,2.35,0.13c1.05,0.14,1.7,0.8,1.98,1.8c0.17,0.6,0.28,1.22,0.44,1.94
		c0.36-0.15,0.66-0.22,0.91-0.38c1.97-1.28,4.06-2.32,6.19-3.28c0.98-0.44,1.9-1,2.83-1.54c1.04-0.6,2.05-1.26,3.1-1.83
		c0.92-0.49,1.86-0.95,2.83-1.32c1.19-0.45,2.1-0.1,2.77,0.97c0.37,0.59,0.71,1.2,0.98,1.84c1.9,4.45,3.58,8.98,4.72,13.7
		c0.4,1.67-0.16,2.82-1.61,3.25c-0.5,0.15-1.06,0.19-1.59,0.16c-0.59-0.04-1.19-0.18-1.76-0.35c-2.94-0.88-5.89-1.72-8.79-2.71
		c-1.85-0.63-3.63-1.47-5.42-2.26c-0.93-0.41-1.84-0.85-2.86-0.96c-0.18-0.02-0.36-0.02-0.65-0.04c0.19,0.74,0.35,1.4,0.53,2.06
		c0.31,1.15,0.18,2.15-1.01,2.74c0.19,1.22,0.81,2.21,1.32,3.19c2.13-0.4,3.81,0.44,5.38,1.76c0.87-0.31,1.78-0.66,2.71-0.96
		c0.94-0.31,1.92-0.37,2.91-0.28c1.38,0.13,2.42,0.88,3.34,1.82c0.2,0.21,0.26,0.56,0.37,0.85c0.11,0.29,0.13,0.63,0.28,0.9
		c1.81,3.36,2.96,6.97,4.17,10.57c0.51,1.52,1.08,3.05,1.82,4.47c1.69,3.28,2.93,6.72,3.98,10.23c0.76,2.54,1.88,4.9,3.37,7.07
		c1.06,1.54,1.6,3.29,2.13,5.04c0.19,0.64,0.01,1.24-0.42,1.78c-1.78,2.19-3.64,4.29-5.86,6.05c-0.54,0.43-1.07,0.89-1.59,1.35
		c-2.81,2.49-6.04,4.26-9.56,5.49c-1.13,0.39-2.32,0.59-3.5,0.83c-1.92,0.4-3.84,0.8-5.77,1.13c-1.52,0.26-3.03-0.01-4.52-0.27
		c-0.78-0.14-1.36-0.66-1.77-1.34c-0.71-1.19-1.49-2.36-2.07-3.61c-2.6-5.59-5-11.27-6.56-17.26c-1.26-4.82-3.27-9.36-4.94-14.03
		c-0.68-1.9-1.48-3.76-2.23-5.64c-0.22-0.56-0.22-1.08-0.01-1.65c0.4-1.1,0.79-2.19,1.56-3.11c0.93-1.11,2.01-2.02,3.32-2.63
		c0.54-0.25,0.82-0.57,0.82-1.21c0.01-1.49,0.77-2.58,2.04-3.31C34.25,35.32,35.16,34.88,36.13,34.37z M67.88,67.99
		c-0.07,0.49-0.14,0.97-0.22,1.46c-0.36,2.13-0.97,4.2-2.08,6.07c-1.71,2.9-4.28,4.4-7.66,4.46c-2.29,0.04-4.48-0.46-6.48-1.57
		c-5.49-3.06-9.22-7.49-10.56-13.76c-0.69-3.24-0.8-6.45,0.13-9.66c1.93-6.62,8.6-9.33,13.5-8.25c1.67,0.37,3.3,0.88,4.86,1.57
		c0.22,0.1,0.44,0.17,0.8,0.31c-1.07-3.28-2.05-6.43-3.34-9.39c-1.5,1.13-2.92,2.3-4.43,3.32c-3.84,2.61-8.15,4.15-12.61,5.33
		c-2.78,0.74-5.59,1.39-8.49,1.42c-0.41,0-0.81,0.08-1.26,0.12c0.04,0.16,0.05,0.29,0.09,0.4c1.51,3.96,3.03,7.91,4.54,11.87
		c0.3,0.8,0.59,1.61,0.8,2.43c1.56,6.29,3.89,12.29,6.58,18.16c0.56,1.23,1.27,2.4,1.94,3.58c0.12,0.22,0.4,0.47,0.62,0.49
		c0.94,0.08,1.91,0.21,2.83,0.06c2.22-0.34,4.41-0.82,6.61-1.26c0.65-0.13,1.3-0.28,1.92-0.5c5.03-1.82,9.12-4.97,12.65-8.92
		c0.13-0.14,0.26-0.27,0.4-0.41c0.48-0.49,0.96-0.99,1.44-1.48c0.28-0.28,0.31-0.57,0.21-0.95C70.21,71.01,68.95,69.58,67.88,67.99z
		 M62.95,56.76c-0.1,0-0.2,0-0.3,0c-0.42,0.74-0.87,1.46-1.25,2.21c-0.99,1.94-2,3.86-3.18,5.71c-0.98,1.54-1.79,3.19-2.65,4.81
		c-0.49,0.92-0.94,1.86-1.41,2.79c-0.48,0.95-0.97,1.89-1.47,2.86c1.44,0.84,2.89,1.25,4.41,1.36c2.8,0.21,4.75-0.95,5.9-3.52
		c0.82-1.83,1.31-3.75,1.42-5.76c0.1-2.03-0.12-4.04-0.49-6.03C63.66,59.7,63.28,58.23,62.95,56.76z M62.12,26.47
		c-0.32-2.38-3.67-11.52-4.66-12.67c-1.99,1.16-3.99,2.36-6.02,3.51c-2.03,1.15-4.27,1.89-6.29,3.1c1.15,0.5,2.25,0.9,3.29,1.43
		c1.76,0.88,3.56,1.62,5.44,2.2c2.48,0.75,4.95,1.51,7.43,2.25C61.54,26.35,61.78,26.39,62.12,26.47z M46.34,69.23
		c0.18-0.54,0.31-0.88,0.42-1.24c0.9-3.08,2.07-6.05,3.63-8.84c1.08-1.94,1.91-3.99,2.73-6.04c0.37-0.93,0.72-1.88,1.11-2.91
		c-0.52-0.09-0.94-0.19-1.37-0.22c-3.22-0.25-6.49,1.61-7.93,4.52c-0.57,1.14-0.9,2.36-1.03,3.63c-0.38,3.46,0.38,6.72,1.78,9.87
		C45.82,68.35,46.04,68.69,46.34,69.23z M57.67,51.36c-0.13,0.17-0.22,0.26-0.28,0.37c-0.14,0.28-0.27,0.57-0.38,0.87
		c-1.16,3.01-2.37,5.99-3.92,8.83c-0.78,1.44-1.37,2.98-2.01,4.5c-0.72,1.72-1.4,3.46-2.09,5.19c-0.12,0.29-0.21,0.59-0.33,0.93
		c0.46,0.42,0.89,0.82,1.39,1.28c0.19-0.44,0.34-0.78,0.49-1.12c1.4-3.15,2.78-6.3,4.63-9.22c0.87-1.39,1.66-2.83,2.47-4.26
		c0.75-1.32,1.47-2.65,2.2-3.98c0.24-0.44,0.47-0.88,0.7-1.32C59.81,52.4,58.86,51.76,57.67,51.36z M29.42,45.96
		c1.45-0.1,2.73-0.07,3.96-0.29c2.21-0.39,4.41-0.84,6.57-1.43c4.04-1.1,7.92-2.64,11.35-5.11c0.87-0.63,1.7-1.32,2.5-2.03
		c0.38-0.34,0.77-0.72,0.8-1.33c-0.94-0.15-1.74,0.15-2.54,0.46c-0.83,0.32-1.66,0.62-2.6,0.4c-0.87,1.71-2.18,3-3.79,3.91
		c-2.45,1.37-4.96,2.65-7.85,2.89c-1.7,0.14-3.36,0.23-4.83-0.85C31.49,43.29,30.25,44.25,29.42,45.96z M44.16,34.74
		c-0.08,0.07-0.16,0.13-0.21,0.2c-1.23,1.73-3.06,2.33-5.04,2.66c-0.21,0.04-0.47,0.05-0.66-0.04c-0.7-0.33-1.28-0.06-1.85,0.31
		c-0.34,0.22-0.7,0.43-1.04,0.66c-0.32,0.21-0.72,0.49-0.53,0.89c0.14,0.28,0.55,0.46,0.88,0.61c0.18,0.09,0.44,0.06,0.65,0.04
		c0.44-0.03,0.88-0.1,1.32-0.14c2.07-0.19,5.83-1.82,7.37-3.21c0.23-0.21,0.46-0.43,0.67-0.67c0.13-0.15,0.21-0.35,0.34-0.57
		C45.38,35.22,44.77,34.98,44.16,34.74z M39.61,33.87c0.35-0.15,0.64-0.26,0.91-0.4c0.36-0.19,0.49-0.55,0.34-0.88
		c-0.41-0.91-0.89-1.79-1.37-2.73c-0.29,0.08-0.58,0.16-0.92,0.25C38.92,31.37,39.25,32.58,39.61,33.87z M38.04,20.9
		c-0.93,0.7-1.1,1.17-0.82,2.19c0.62-0.21,1.23-0.42,1.67-0.93C38.71,21.65,38.63,21.14,38.04,20.9z M33.72,18.85
		c0.14,0.47,0.24,0.82,0.37,1.26c0.46-0.54,0.84-0.99,1.35-1.58C34.79,18.65,34.32,18.74,33.72,18.85z M37.32,26.82
		c0-0.05,0-0.09,0-0.14c-0.52-0.07-1.03-0.14-1.64-0.22c0.11,0.32,0.19,0.57,0.29,0.88C36.47,27.15,36.9,26.98,37.32,26.82z
		 M39.96,25.84c-0.45,0.02-0.82,0.24-1.29,0.53C39.3,26.46,39.65,26.2,39.96,25.84z"/>
</g>
</svg>
