<?xml version="1.0" encoding="utf-8"?>
<!-- Generator: Adobe Illustrator 24.0.1, SVG Export Plug-In . SVG Version: 6.00 Build 0)  -->
<svg version="1.1" id="Layer_1" xmlns="http://www.w3.org/2000/svg" xmlns:xlink="http://www.w3.org/1999/xlink" x="0px" y="0px"
	 viewBox="0 0 100 100" style="enable-background:new 0 0 100 100;" xml:space="preserve">
<g>
	<path d="M34.02,52.04c0.14-0.84,0.26-1.54,0.39-2.33c-0.4-0.16-0.77-0.32-1.15-0.44c-3.11-1-6.21-2-9.33-2.98
		c-2.72-0.85-5.45-1.69-8.19-2.48c-1.01-0.29-2.05-0.44-3.08-0.68c-0.4-0.09-0.81-0.19-1.17-0.38c-0.81-0.44-1.18-1.34-0.97-2.2
		c0.22-0.89,0.92-1.55,1.86-1.51c1.01,0.05,2.02,0.19,3,0.45c2.5,0.65,5,1.36,7.48,2.11c2.48,0.74,4.95,1.52,7.4,2.36
		c1.38,0.47,2.71,1.1,4.06,1.66c0.38,0.16,0.76,0.31,1.24,0.5c0.42-0.84,0.84-1.66,1.27-2.5c-0.2-0.23-0.36-0.44-0.54-0.62
		c-2.05-2.14-4.14-4.25-6.15-6.43c-2.09-2.28-4.24-4.46-6.7-6.34c-1.13-0.86-2.2-1.82-3.19-2.84c-0.5-0.51-0.9-1.21-1.13-1.9
		c-0.35-1.02,0.25-2.07,1.23-2.47c0.95-0.39,1.88-0.02,2.5,0.92c0.3,0.46,0.65,0.91,1.05,1.3c0.62,0.6,1.27,1.18,1.96,1.69
		c2.92,2.16,5.43,4.73,7.81,7.46c1.46,1.67,2.94,3.32,4.41,4.97c0.37,0.42,0.77,0.81,1.2,1.27c0.65-0.54,1.25-1.03,1.79-1.47
		c-0.25-2.31-1.35-4.15-2.43-6.06c-1.64-2.91-3.06-5.93-4.55-8.92c-0.85-1.71-1.67-3.45-2.47-5.19c-0.29-0.64-0.55-1.33-0.68-2.02
		c-0.22-1.17,0.44-2.19,1.47-2.45c1.12-0.28,2.06,0.33,2.52,1.52c0.5,1.29,1.05,2.57,1.66,3.81c2.08,4.21,3.88,8.55,6.32,12.57
		c0.86,1.41,1.42,2.97,1.56,4.71c0.91-0.21,1.71-0.39,2.6-0.59c0.23-1.02,0.13-2.06-0.02-3.09c-0.26-1.83-0.28-3.65-0.26-5.5
		c0.03-3.41-0.18-6.83-0.27-10.24c-0.05-1.91-0.11-3.83-0.1-5.74c0-1.06,0.72-1.81,1.69-1.95c0.97-0.14,1.88,0.38,2.22,1.34
		c0.13,0.34,0.17,0.73,0.18,1.1c0.11,2.85,0.23,5.7,0.29,8.55c0.06,2.67,0.05,5.33,0.08,8c0.01,1.2,0.07,2.4,0.08,3.6
		c0.01,1.53,0,3.07,0,4.78c0.37,0.07,0.87,0.16,1.46,0.26c0.11-0.29,0.24-0.55,0.32-0.82c0.6-2.13,1.15-4.28,1.79-6.39
		c0.77-2.56,1.81-5.01,3.08-7.37c1.16-2.16,2.04-4.43,2.57-6.83c0.11-0.47,0.25-0.95,0.47-1.38c0.54-1.05,1.65-1.47,2.66-1.05
		c0.99,0.41,1.43,1.38,1.14,2.52c-0.83,3.21-1.93,6.3-3.48,9.25c-0.92,1.75-1.64,3.62-2.32,5.49c-0.87,2.4-1.6,4.85-2.39,7.27
		c-0.06,0.18-0.09,0.36-0.14,0.58c0.56,0.45,1.11,0.9,1.76,1.43c0.26-0.25,0.52-0.5,0.78-0.75c1.11-1.07,2.23-2.12,3.31-3.22
		c1.31-1.34,2.57-2.74,3.88-4.08c2.46-2.53,4.94-5.04,7.43-7.54c0.26-0.26,0.59-0.47,0.93-0.63c0.96-0.45,2.05-0.15,2.6,0.68
		c0.53,0.79,0.43,1.84-0.31,2.57c-0.87,0.88-1.77,1.74-2.67,2.59c-2.13,2.01-4.13,4.15-6.07,6.35c-1.36,1.54-2.93,2.9-4.43,4.32
		c-0.84,0.8-1.74,1.55-2.69,2.39c0.54,0.75,1.05,1.46,1.62,2.24c0.51-0.28,0.96-0.55,1.43-0.77c1.43-0.66,2.84-1.36,4.3-1.94
		c4.04-1.62,8.09-3.2,12.15-4.78c0.63-0.24,1.27-0.46,1.93-0.59c1.14-0.24,2.13,0.34,2.42,1.32c0.3,1.01-0.18,2.06-1.21,2.5
		c-1.72,0.74-3.46,1.46-5.21,2.12c-3.58,1.36-7.18,2.65-10.76,4.01c-1.15,0.44-2.26,1-3.45,1.53c0.32,0.95,0.63,1.82,0.96,2.8
		c0.59,0,1.18,0.01,1.77,0c5.03-0.14,10.05-0.31,15.08-0.42c0.78-0.02,1.58,0.08,2.34,0.26c0.87,0.21,1.42,0.83,1.58,1.73
		c0.23,1.25-0.83,2.42-2.14,2.27c-3.34-0.38-6.67-0.13-10,0.06c-1.23,0.07-2.47,0.02-3.71,0.02c-1.38,0-2.77,0-4.24,0
		c0,0.61,0,1.23,0,1.99c1.35,0.35,2.74,0.84,4.17,1.06c1.54,0.24,3,0.66,4.43,1.23c1.6,0.64,3.24,1.19,4.84,1.83
		c1.5,0.6,2.99,1.22,4.45,1.9c1.37,0.64,2.74,1.21,4.26,1.4c1.25,0.16,1.94,1.01,1.86,2.13c-0.07,1.07-0.94,1.89-2.14,1.9
		c-0.63,0-1.27-0.11-1.89-0.26c-0.66-0.15-1.34-0.31-1.92-0.62c-3.49-1.88-7.32-2.91-10.94-4.44c-1.06-0.45-2.21-0.69-3.32-1.03
		c-1.04-0.32-2.08-0.63-3.12-0.96c-0.46-0.14-0.9-0.32-1.38-0.5c-0.4,0.9-0.77,1.72-1.16,2.59c0.06,0.09,0.11,0.23,0.22,0.33
		c2.08,1.98,3.8,4.26,5.45,6.59c1.44,2.03,3.01,3.94,4.78,5.68c1.61,1.59,3.11,3.28,4,5.39c0.29,0.68,0.53,1.41,0.62,2.15
		c0.15,1.24-0.46,2.08-1.48,2.32c-0.93,0.21-1.82-0.3-2.33-1.36c-0.07-0.13-0.13-0.27-0.17-0.42c-0.48-1.58-1.36-2.95-2.53-4.07
		c-3.5-3.35-6.26-7.29-9.06-11.19c-0.61-0.85-1.28-1.65-1.96-2.51c-0.78,0.48-1.47,0.91-2.22,1.37c0.39,0.91,0.77,1.76,1.13,2.62
		c0.4,0.97,0.79,1.95,1.14,2.93c0.79,2.23,1.62,4.44,2.3,6.71c0.69,2.3,1.24,4.64,1.78,6.97c0.26,1.12-0.48,2.17-1.53,2.42
		c-1.04,0.25-2.1-0.36-2.43-1.49c-0.27-0.93-0.41-1.91-0.67-2.85c-0.42-1.52-0.85-3.03-1.35-4.52c-1.12-3.38-2.29-6.75-3.44-10.12
		c-0.14-0.42-0.31-0.83-0.49-1.31c-1.15,0.18-2.25,0.35-3.44,0.54c0.05,0.26,0.07,0.47,0.13,0.67c0.97,2.99,1.27,6.09,1.53,9.2
		c0.14,1.68,0.28,3.37,0.35,5.06c0.04,1.01-0.02,2.03-0.09,3.04c-0.03,0.4-0.15,0.82-0.33,1.18c-0.41,0.82-1.32,1.23-2.17,1.06
		c-0.92-0.19-1.58-0.94-1.6-1.92c-0.01-0.6,0.1-1.2,0.08-1.8c-0.06-1.76-0.13-3.53-0.26-5.29c-0.25-3.48-0.63-6.95-1.38-10.37
		c-0.06-0.25-0.13-0.5-0.21-0.82c-0.65-0.12-1.31-0.23-2.03-0.36c-0.29,1.25-0.53,2.46-0.84,3.64c-0.29,1.13-0.6,2.25-0.97,3.35
		c-1.23,3.66-2.49,7.32-3.74,10.98c-0.12,0.35-0.25,0.72-0.44,1.03c-0.5,0.84-1.43,1.18-2.34,0.91c-0.87-0.26-1.47-1.11-1.37-2.09
		c0.05-0.51,0.23-1.02,0.4-1.52c1.71-5.09,3.43-10.17,5.13-15.26c0.24-0.71,0.38-1.45,0.58-2.24c-0.36-0.26-0.68-0.49-0.93-0.67
		c-5.98,5.67-10.98,12.12-16.26,18.32c-0.24,0.28-0.48,0.59-0.77,0.82c-0.75,0.6-1.78,0.59-2.5,0.02c-0.73-0.58-0.98-1.56-0.56-2.44
		c0.18-0.37,0.42-0.72,0.68-1.03c3.71-4.39,7.4-8.79,11.18-13.12c1.1-1.27,2.45-2.32,3.69-3.47c0.27-0.26,0.59-0.47,0.85-0.74
		c0.48-0.51,0.47-0.7,0.04-1.24c-0.58-0.73-1.15-1.47-1.78-2.28c-0.16,0.05-0.39,0.08-0.56,0.19c-5.67,3.91-11.88,6.89-17.85,10.3
		c-0.75,0.43-1.45,0.93-2.17,1.41c-1.01,0.69-2.14,0.61-2.84-0.21c-0.69-0.81-0.65-2.03,0.21-2.85c0.62-0.59,1.34-1.1,2.08-1.52
		c2.81-1.59,5.65-3.12,8.48-4.68c3.71-2.05,7.41-4.11,11.16-6.2c-0.2-1-0.39-1.98-0.59-3.01c-0.18,0-0.33-0.02-0.47,0
		c-3.52,0.55-7.04,1.1-10.56,1.64c-0.48,0.07-0.97,0.1-1.46,0.09c-2.11-0.01-4.2,0.16-6.28,0.52c-0.5,0.09-1.06,0.07-1.55-0.06
		c-0.92-0.24-1.49-1.13-1.44-2.05c0.05-0.89,0.64-1.64,1.58-1.8c1.55-0.26,3.12-0.55,4.69-0.61c3.08-0.12,6.14-0.33,9.19-0.83
		C29.72,52.38,31.83,52.26,34.02,52.04z M49.95,65.69c3.29-0.11,5-0.5,7.27-1.61c1.55-0.76,2.65-1.95,3.31-3.53
		c0.72-1.73,1.01-3.55,0.75-5.4c-0.6-4.31-2.16-8.14-5.5-11.15c-1.48-1.34-3.04-2.24-5.03-2.47c-0.71-0.08-1.46-0.4-2.04-0.83
		c-0.5-0.36-0.89-0.41-1.43-0.27c-1.5,0.38-2.7,1.29-3.91,2.18c-1.57,1.15-2.87,2.55-3.62,4.37c-0.49,1.18-0.96,2.37-1.27,3.6
		c-0.63,2.52-0.63,5.06,0.19,7.55c0.52,1.59,1.29,3.04,2.62,4.12c0.79,0.64,1.59,1.25,2.42,1.83c0.49,0.34,1.01,0.68,1.57,0.86
		C46.86,65.44,48.47,65.82,49.95,65.69z"/>
	<path d="M49.53,62.76c-2.15-0.17-4.16-0.62-5.92-1.96c-1.77-1.34-3.01-3.01-3.53-5.19c-0.16-0.69-0.33-1.39-0.45-2.09
		c-0.06-0.36-0.06-0.75,0.01-1.12c0.15-0.89,0.85-1.5,1.69-1.55c0.83-0.04,1.56,0.5,1.81,1.39c0.18,0.65,0.3,1.32,0.5,1.96
		c0.82,2.59,2.96,4.21,5.68,4.31c0.52,0.02,1.05,0.02,1.58,0c1.42-0.06,2.31-0.71,2.77-2.05c0.19-0.57,0.26-1.17,0.44-1.75
		c0.15-0.5,0.31-1.01,0.59-1.44c0.46-0.7,1.33-0.96,2.08-0.74c0.85,0.25,1.43,0.83,1.42,1.69c-0.02,3.3-1.56,7.2-5.44,8.16
		C51.72,62.65,50.61,62.65,49.53,62.76z"/>
	<path d="M45.49,47.65c-0.06,0.99-0.9,1.74-1.89,1.68c-1.11-0.06-2.06-1.1-1.99-2.18c0.06-0.99,0.9-1.75,1.88-1.7
		C44.56,45.52,45.55,46.61,45.49,47.65z"/>
	<path d="M53.22,45.8c1.09,0.03,1.91,1.02,1.85,2.24c-0.05,1.01-0.84,1.72-1.87,1.67c-1.09-0.05-1.92-0.99-1.88-2.11
		C51.37,46.54,52.18,45.77,53.22,45.8z"/>
</g>
</svg>
