<?xml version="1.0" encoding="utf-8"?>
<!-- Generator: Adobe Illustrator 24.0.1, SVG Export Plug-In . SVG Version: 6.00 Build 0)  -->
<svg version="1.1" id="Layer_1" xmlns="http://www.w3.org/2000/svg" xmlns:xlink="http://www.w3.org/1999/xlink" x="0px" y="0px"
	 viewBox="0 0 100 100" style="enable-background:new 0 0 100 100;" xml:space="preserve">
<g>
	<path d="M57.55,44.55c-0.11,6.82-0.22,13.72-0.33,20.78c0.8,0,1.55,0.01,2.3,0c0.65-0.01,1.3-0.08,1.95-0.05
		c1.51,0.07,2.44,1.04,2.59,2.54c0.1,1.04,0.3,2.07,0.44,3.11c0.06,0.46,0.14,0.94,0.13,1.4c-0.05,1.15-0.63,1.93-1.74,2.22
		c-1.19,0.31-2.4,0.49-3.6,0.75c-0.52,0.11-1.03,0.26-1.43,0.36c0.03,1.47,0.01,2.8,0.08,4.13c0.05,0.9,0.26,1.79,0.32,2.68
		c0.11,1.55,0.28,3.11,0.2,4.65c-0.08,1.65-1.03,2.45-2.68,2.55c-2.13,0.13-4.26,0.22-6.39,0.32c-0.29,0.01-0.58-0.02-0.87-0.05
		c-2.22-0.23-2.92-0.94-3.44-3.08c-0.51-2.12-0.42-4.24-0.39-6.37c0.02-1.26,0-2.52,0-3.93c-0.48,0.02-1,0.05-1.52,0.07
		c-2.28,0.06-4.55,0.16-6.83,0.17c-1.15,0-1.87-0.7-2.13-1.81c-0.42-1.83-0.33-3.68-0.11-5.51c0.14-1.14,0.78-1.72,2-1.98
		c1.49-0.31,2.98-0.59,4.47-0.9c0.24-0.05,0.48-0.13,0.78-0.2c0-0.41,0.01-0.8,0-1.19c-0.05-2.35-0.15-4.7-0.14-7.05
		c0.02-3.55,0.1-7.09,0.2-10.64c0.02-0.77-0.24-1.22-0.89-1.66c-1.29-0.86-2.58-1.76-3.7-2.82c-2.77-2.63-3.48-5.92-2.66-9.56
		c0.42-1.83,0.99-3.63,1.45-5.45c0.24-0.95,0.36-1.92,0.55-2.88c0.1-0.49,0.23-0.98,0.38-1.47c0.51-1.65,2.29-2.38,3.7-1.18
		c0.11,0.09,0.24,0.16,0.39,0.26c0.68-0.8,1.14-1.69,1.44-2.66c0.43-1.34,0.84-2.69,1.27-4.04c0.08-0.24,0.16-0.48,0.26-0.71
		c0.68-1.5,2.25-1.96,3.61-1.04c0.51,0.34,0.99,0.74,1.45,1.14c0.46,0.4,0.89,0.85,1.4,1.34c0.12-0.21,0.26-0.4,0.33-0.61
		c0.38-1.28,0.75-2.57,1.11-3.85c0.09-0.31,0.13-0.64,0.25-0.94c0.61-1.47,2.37-1.83,3.47-0.68c0.42,0.44,0.71,1,1,1.54
		c1.13,2.1,2.23,4.22,3.36,6.32c0.11,0.2,0.31,0.42,0.52,0.49c2.73,0.92,4.22,3.01,5.03,5.59c1,3.18,1.28,6.45,0.74,9.77
		c-0.14,0.86-0.25,1.72-0.37,2.58c-0.17,1.21-0.58,2.32-1.34,3.28c-1.21,1.52-2.68,2.76-4.43,3.6
		C59.07,44.18,58.31,44.32,57.55,44.55z M41.23,41.77c0.07-0.53,0.14-0.91,0.18-1.3c0.08-0.94,0.09-1.88,0.2-2.82
		c0.15-1.23,0.55-2.39,1.33-3.38c1.71-2.14,3.86-3.9,5.29-6.28c0.19-0.32,0.55-0.59,0.88-0.78c0.92-0.52,2.2-0.31,2.71,0.59
		c0.83,1.47,2.1,2.57,3.06,3.93c0.58,0.83,1.26,1.58,1.9,2.36c0.53,0.65,0.75,1.34,0.58,2.21c-0.27,1.35,0.03,2.71,0.08,4.2
		c1.67-0.71,2.88-1.69,3.79-3.04c0.16-0.23,0.26-0.53,0.29-0.81c0.23-1.76,0.51-3.51,0.63-5.28c0.08-1.13,0-2.29-0.39-3.51
		c-0.16,0.41-0.25,0.72-0.39,1c-0.49,0.97-1.49,1.4-2.45,1.08c-1.02-0.35-1.6-1.34-1.3-2.41c0.21-0.77,0.19-1.52-0.03-2.25
		c-0.5-1.66-0.96-3.34-1.61-4.95c-0.43-1.09-1.15-2.06-1.77-3.15c-0.65,1.11-1.21,2.07-1.82,3.12c0.19,0.34,0.42,0.74,0.64,1.16
		c0.22,0.41,0.45,0.83,0.64,1.26c0.22,0.49,0.47,0.99,0.57,1.52c0.18,0.96-0.3,1.77-1.14,2.11c-0.83,0.35-1.75,0.1-2.32-0.67
		c-0.25-0.35-0.41-0.76-0.63-1.13c-1.01-1.67-2.03-3.34-3.06-5c-0.12-0.19-0.33-0.31-0.61-0.56c-0.46,2.63-1.93,4.63-3.34,6.78
		c0.66,0.61,1.25,1.13,1.81,1.69c0.75,0.74,0.84,1.79,0.28,2.57c-0.59,0.8-1.71,1.05-2.63,0.5c-0.46-0.27-0.85-0.67-1.25-1.03
		c-0.53-0.48-1.03-0.99-1.58-1.53c-0.58,2.07-1.14,4.01-1.66,5.96C37.25,37.16,38.23,39.47,41.23,41.77z M48.54,33.92
		c-1.01,0.96-1.89,1.76-2.73,2.61c-0.17,0.17-0.23,0.51-0.25,0.78c-0.1,1.26-0.18,2.53-0.26,3.79c-0.06,1.05-0.22,2.1-0.14,3.14
		c0.39,4.49,0,8.97,0.02,13.46c0.01,2.53-0.08,5.07-0.12,7.6c0,0.27,0.06,0.54,0.11,0.88c0.84-0.1,1.58-0.19,2.32-0.28
		c0.16-0.72,0.3-1.35,0.43-1.99c0.12-0.6,0.32-1.19,0.32-1.79c0.07-4.81,0.11-9.63,0.16-14.44c0.01-0.62,0.05-1.23,0.07-1.84
		c0.04-1.34,0.08-2.68,0.09-4.02c0.01-2.24-0.02-4.49-0.03-6.73C48.54,34.73,48.54,34.38,48.54,33.92z M37.94,72.78
		c1.42,0,2.79,0.06,4.15-0.01c2.49-0.13,4.98-0.35,7.47-0.48c1.3-0.07,2.61,0.02,3.9-0.1c1.39-0.13,2.8-0.04,4.16-0.56
		c0.86-0.32,1.82-0.38,2.79-0.57c-0.11-0.61-0.2-1.17-0.3-1.71c-1.81,0-3.52-0.09-5.21,0.02c-4.22,0.27-8.44,0.58-12.66,0.98
		c-1.45,0.14-2.88,0.57-4.31,0.86C37.94,71.81,37.94,72.26,37.94,72.78z M53.57,65.45c0-0.52,0.01-0.91,0-1.3
		c-0.06-1.66-0.18-3.32-0.19-4.99c-0.01-2.89,0.05-5.79,0.07-8.68c0.03-3.11,0.06-6.22,0.05-9.33c0-1.3-0.21-2.61-0.16-3.9
		c0.03-0.81-0.21-1.35-0.93-1.92c0.18,10.13-0.1,20.11-0.36,30.12C52.54,65.45,52.97,65.45,53.57,65.45z M52.86,82.58
		c-0.53,1.07-1.04,2.08-1.61,3.21c1.15,0,2.17,0,3.21,0C54.6,84.37,54.45,83.19,52.86,82.58z M51.38,76.2
		c-0.04,0.07-0.08,0.15-0.11,0.22c0.82,0.69,1.65,1.36,2.58,1.88c0.08-0.05,0.16-0.1,0.23-0.16c-0.14-0.64-0.29-1.29-0.43-1.95
		C52.81,76.2,52.09,76.2,51.38,76.2z M49.71,80.15c-0.36-0.31-0.67-0.57-1.05-0.91c0,1.13,0,2.1,0,3.06
		c0.05,0.01,0.1,0.02,0.14,0.02C49.09,81.64,49.37,80.95,49.71,80.15z"/>
</g>
</svg>
