<?xml version="1.0" encoding="utf-8"?>
<!-- Generator: Adobe Illustrator 24.0.1, SVG Export Plug-In . SVG Version: 6.00 Build 0)  -->
<svg version="1.1" id="Layer_1" xmlns="http://www.w3.org/2000/svg" xmlns:xlink="http://www.w3.org/1999/xlink" x="0px" y="0px"
	 viewBox="0 0 100 100" style="enable-background:new 0 0 100 100;" xml:space="preserve">
<g>
	<path d="M89.78,51.88c0,2.7-0.02,5.41,0.01,8.11c0.01,1.22,0.05,2.45,0.18,3.66c0.13,1.19-0.09,2.13-1.29,2.64
		c-0.26,0.11-0.48,0.35-0.67,0.57c-0.59,0.71-1.22,1.4-1.71,2.18c-1.88,3.01-4.27,5.59-6.69,8.14c-0.46,0.48-0.88,0.95-1.13,1.61
		c-0.42,1.13-2.54,2.33-3.79,2.27c-0.21-0.01-0.46-0.03-0.64,0.05c-1.87,0.89-3.9,0.93-5.88,0.94c-4.45,0.02-8.88,0.32-13.32,0.67
		c-0.41,0.03-0.81,0.05-1.22,0.06c-2.96,0.09-5.93,0.23-8.89,0.23c-2.37,0-4.73-0.19-7.1-0.28c-1.92-0.08-3.85-0.24-5.77-0.2
		c-2.71,0.05-5.41,0.02-8.08-0.45c-0.55-0.1-1.1-0.16-1.66-0.17c-2.26-0.02-4.38-0.65-6.47-1.43c-1.6-0.59-2.43-1.74-2.71-3.36
		c-0.09-0.51-0.15-1.03-0.19-1.54c-0.28-3.69-0.53-7.39-0.83-11.08c-0.3-3.65-0.58-7.31-0.99-10.96
		c-0.57-5.16-0.83-10.34-0.93-15.53c-0.04-2.37,0.02-4.73,0.12-7.1c0.02-0.55,0.33-1.14,0.66-1.6c0.54-0.75,1.18-1.42,1.83-2.09
		c1.16-1.19,2.33-2.39,3.55-3.52c0.76-0.7,1.6-1.32,2.46-1.88c0.87-0.57,1.73-1.13,2.35-1.99c0.65-0.91,1.72-1.01,2.69-1.09
		c2.69-0.21,5.39-0.33,8.09-0.46c2.37-0.11,4.74-0.23,7.11-0.26c6.63-0.09,13.26-0.13,19.89-0.19c0.44,0,0.89-0.04,1.33-0.06
		c1-0.05,2.01-0.22,2.99-0.13c3.3,0.3,6.59,0.04,9.88-0.05c2.88-0.07,5.77-0.1,8.65-0.51c1.16-0.17,2.37-0.08,3.55-0.07
		c0.67,0.01,1.23,0.32,1.57,0.91c0.81,1.42,1.41,2.92,1.51,4.57c0.13,2.06,0.24,4.13,0.34,6.19C88.97,36.42,89.83,44.13,89.78,51.88
		z M56.04,58.48c-0.14-2.35-0.29-4.73-0.44-7.22c-3.6-0.11-7.09-0.22-10.55-0.33c-0.31,1.02,0.05,5.89,0.5,7.42
		C47.29,58.61,55.05,58.73,56.04,58.48z M48.14,70.92c-0.01-2.89,0.04-5.61-0.58-8.31c-3.06-0.18-6.03-0.31-9.09-0.19
		c0.39,2.83,0.76,5.52,1.14,8.27C42.47,70.76,45.23,70.84,48.14,70.92z M51.83,21.85c-0.67,0-1.07-0.01-1.47,0
		c-3.11,0.07-6.22,0.17-9.33,0.2c-0.69,0.01-1.21,0.18-1.68,0.66c-1.7,1.75-3.42,3.49-5.13,5.24c-0.11,0.11-0.16,0.28-0.27,0.47
		c2.94,0.52,5.78,0.23,8.62,0.11c0.14-0.01,0.28-0.09,0.41-0.15C46.29,26.85,49.03,24.55,51.83,21.85z M60.23,71.42
		c-0.09-2.97-0.18-5.8-0.27-8.68c-2.87,0-5.62,0-8.27,0c0.22,2.82,0.44,5.57,0.67,8.43c2.21,0.06,4.46,0.11,6.71,0.18
		C59.43,71.36,59.79,71.39,60.23,71.42z M62.85,37.54c1.97-0.04,3.81-0.13,5.65-0.1c1.82,0.03,3.64,0.45,5.53,0.16
		c-0.03-2.32-0.03-4.56-0.41-6.87c-3.5,0.96-6.98,0.91-10.5,1.08C62.98,33.8,62.77,35.66,62.85,37.54z M27.48,70.11
		c2.68-0.06,5.26,0.48,7.93,0.44c-0.26-2.8-0.51-5.47-0.75-8.12c-2.55,0-4.98,0-7.38,0C27.35,65,27.42,67.47,27.48,70.11z
		 M32.97,50.47c-0.08,2.77,0.54,5.22,0.68,7.79c2.59,0,5.08,0,7.61,0c-0.05-1.26-0.11-2.47-0.14-3.68
		c-0.03-1.24-0.03-2.48-0.04-3.75C38.34,50.71,35.74,50.59,32.97,50.47z M74.02,48.31c0-2.33,0-4.56,0-6.95
		c-3.11,0.59-6.13-0.26-9.23,0.23c0.17,2.12,0.33,4.12,0.49,6.25C68.22,47.99,71.08,48.15,74.02,48.31z M78.65,71.86
		c0.1,0.01,0.19,0.02,0.29,0.04c1.27-1.24,2.32-2.66,3.35-4.1c1.05-1.47,2.17-2.9,3.34-4.27c0.37-0.44,0.53-0.8,0.48-1.37
		c-0.12-1.36-0.18-2.72-0.26-4.09c-0.03-0.54-0.06-1.09-0.1-1.79c-0.3,0.25-0.47,0.38-0.61,0.53c-1.91,1.91-3.7,3.94-5.93,5.5
		c-0.45,0.31-0.43,0.71-0.44,1.16c-0.03,2.14-0.08,4.29-0.11,6.43C78.64,70.55,78.65,71.21,78.65,71.86z M50.51,41.42
		c0.3,1.97,0.58,3.78,0.86,5.56c3.28,0.42,8.83,0.61,9.68,0.36c0-1.89,0-3.76,0-5.68C57.48,41.58,54.05,41.5,50.51,41.42z
		 M59.14,32.07c-4.01,0.25-7.94,0.5-12.01,0.76c0.1,1.54,0.19,3.03,0.28,4.59c3.81,0,7.53,0,11.24,0
		C58.82,35.66,58.97,33.97,59.14,32.07z M43.36,37.59c0.02-1.73,0.08-3.34-0.01-5.08c-3.75,0.33-7.37,0.41-11.06-0.15
		c0,1.9,0,3.68,0,5.59C35.97,37.82,39.59,37.71,43.36,37.59z M23.35,70.07c-0.03-2.61,0.49-5.09,0.06-7.71
		c-2.53,0.15-4.98,0.29-7.52,0.44c0.13,2.43,0.2,4.73,0.53,7.03C18.74,69.91,20.95,69.99,23.35,70.07z M37.55,46.67
		c3.29,0.08,6.44,0.15,9.73,0.23c-0.18-1.84-0.34-3.52-0.49-5.16c-1.9-0.27-8.9-0.05-10.12,0.33
		C36.96,43.53,37.24,45.01,37.55,46.67z M84.03,23.42c-2.17,1.62-4.14,3.41-5.87,5.5c-0.69,0.84-0.86,1.58-0.68,2.59
		c0.26,1.41,0.37,2.85,0.55,4.28c0.03,0.24,0.07,0.47,0.14,0.95c0.58-0.61,1.02-1.03,1.42-1.49c1.53-1.76,3.04-3.52,4.55-5.29
		c0.18-0.21,0.42-0.49,0.41-0.73C84.47,27.3,84.74,25.32,84.03,23.42z M65.5,22.07c-0.03-0.09-0.06-0.17-0.09-0.26
		c-0.84-0.05-1.69-0.16-2.53-0.15c-1.26,0.02-2.51,0.16-3.77,0.2c-0.51,0.01-0.91,0.15-1.31,0.48c-2.23,1.9-4.47,3.77-6.7,5.66
		c-0.14,0.12-0.23,0.3-0.42,0.53c2.5-0.15,4.86-0.28,7.22-0.46c0.33-0.03,0.69-0.23,0.97-0.45c1.67-1.35,3.32-2.72,4.97-4.1
		C64.41,23.05,64.95,22.55,65.5,22.07z M65.52,27.42c0.03,0.08,0.05,0.16,0.08,0.24c0.84-0.04,1.68-0.03,2.51-0.13
		c2.38-0.29,4.75-0.63,7.11-0.95c1.44-1.67,2.92-3.39,4.4-5.11c-0.06-0.01-0.16-0.05-0.26-0.05c-2.26,0.07-4.52,0.14-6.77,0.23
		c-0.27,0.01-0.6,0.1-0.8,0.27C69.68,23.75,67.61,25.59,65.52,27.42z M23.5,50.59c0.02,2.69,0.23,5.2,0.43,7.69
		c2.11,0.21,4.8,0.12,5.58-0.15c-0.12-2.51-0.24-5-0.36-7.54C27.33,50.59,25.5,50.59,23.5,50.59z M31.68,78.28
		c1.38,0.28,10.24,0.72,10.78,0.54c-0.08-1.31-0.16-2.62-0.24-3.96c-3.6-0.13-7.11-0.26-10.7-0.39
		C31.39,75.77,31.63,77.03,31.68,78.28z M28.46,31.98c-2.55,0.08-4.92,0-7.33,0.61c0.16,1.98,0.3,3.81,0.45,5.71
		c2.23,0.06,4.34-0.11,6.5-0.39C28.2,35.94,28.32,34.06,28.46,31.98z M16.71,73.76c0.05,0.76,0.11,1.46,0.14,2.15
		c0.02,0.57,0.32,0.84,0.84,1.02c1.44,0.5,2.9,0.87,4.43,0.95c1.25,0.07,2.5,0.27,3.75,0.41c0.57,0.06,1.14,0.1,1.78,0.15
		c0-1.5,0-2.85,0-4.18C24.02,74.09,20.45,73.93,16.71,73.76z M74.29,52.17c-2.23,0-4.35,0-6.59,0c0.25,2.1,0.49,4.12,0.72,6.13
		c2.1,0.12,4.05,0.23,6.13,0.35C74.47,56.51,74.38,54.42,74.29,52.17z M78.23,47.53c0.07,0.03,0.15,0.07,0.22,0.1
		c0.79-0.81,1.59-1.61,2.36-2.43c1.06-1.13,2.1-2.29,3.15-3.43c0.32-0.35,0.66-0.7,0.96-1.08c0.15-0.19,0.32-0.46,0.31-0.68
		c-0.06-1.49-0.17-2.98-0.27-4.59c-0.25,0.17-0.36,0.21-0.42,0.28c-1.47,1.71-2.89,3.47-4.66,4.9c-0.62,0.51-1.34,1.08-1.62,1.78
		c-0.29,0.74-0.11,1.67-0.13,2.52c-0.01,0.3,0,0.59,0.01,0.89C78.17,46.37,78.2,46.95,78.23,47.53z M14.73,50.87
		c0.29,2.66,0.57,5.22,0.86,7.92c1.48-0.12,2.83-0.23,4.14-0.34c0-2.6,0-5.07,0-7.58C18.04,50.87,16.43,50.87,14.73,50.87z
		 M14.38,46.8c2.85-0.1,5.57,0.1,8.27-0.28c0-1.43,0-2.74,0-4.21c-2.84,0.19-5.58,0.37-8.27,0.55
		C14.38,44.16,14.38,45.43,14.38,46.8z M63.72,62.54c0.23,2.99,0.44,5.82,0.67,8.74c1.25-0.07,2.37-0.14,3.56-0.21
		c-0.08-2.95,0.4-5.74,0.05-8.54C66.54,62.54,65.18,62.54,63.72,62.54z M78.6,57.47c0.32-0.26,0.52-0.4,0.69-0.56
		c0.81-0.76,1.62-1.52,2.41-2.29c1.14-1.11,2.26-2.24,3.41-3.34c0.41-0.39,0.56-0.81,0.53-1.38c-0.07-1.11-0.06-2.22-0.09-3.33
		c-0.01-0.18-0.1-0.36-0.16-0.59c-0.82,0.99-1.54,1.94-2.34,2.8c-1.37,1.46-2.79,2.86-4.18,4.3c-0.19,0.2-0.42,0.48-0.42,0.72
		C78.46,54.97,78.54,56.14,78.6,57.47z M64.28,58.48c-0.11-2.28-0.21-4.44-0.32-6.73c-1.5-0.07-2.98-0.14-4.48-0.21
		c0.24,2.41,0.47,4.67,0.69,6.93C61.54,58.48,62.88,58.48,64.28,58.48z M26.77,46.38c2.24,0,4.39,0,6.58,0
		c-0.17-1.54-0.33-2.96-0.49-4.43c-2.18-0.08-4.27-0.11-6.42,0.3C26.56,43.67,26.66,45.02,26.77,46.38z M53.8,75.29
		c-2.65-0.13-5.22-0.25-7.91-0.37c0.18,1.38,0.34,2.6,0.5,3.81c2.51,0,4.92,0,7.41,0C53.8,77.54,53.8,76.49,53.8,75.29z
		 M33.81,22.47c-0.04-0.09-0.07-0.18-0.11-0.27c-1.32,0.1-2.63,0.24-3.95,0.28c-0.72,0.02-1.16,0.3-1.53,0.88
		c-0.88,1.37-1.8,2.71-2.69,4.07c-0.1,0.16-0.16,0.35-0.25,0.53c1.01,0,1.93,0.04,2.85-0.02c0.29-0.02,0.62-0.22,0.83-0.44
		C30.59,25.82,32.2,24.14,33.81,22.47z M74.53,71.15c0.1-2.92,0.45-5.81,0.03-8.75c-0.93,0-1.77,0-2.69,0
		c0.08,2.84,0.17,5.62,0.25,8.43C72.93,70.93,73.69,71.03,74.53,71.15z M17.43,38.62c0-2,0-3.9,0-5.8
		c-1.36-0.31-2.54,0.05-3.82,0.52c0.16,1.76,0.32,3.5,0.48,5.28C15.26,38.62,16.31,38.62,17.43,38.62z M74.59,75.23
		c-1.2-0.08-2.3-0.2-3.4-0.2c-1.09,0-2.18,0.11-3.35,0.18c0.1,1.01,0.18,1.87,0.28,2.87c1.39-0.17,2.63-0.32,3.87-0.46
		c0.44-0.05,0.88-0.15,1.32-0.12c1.31,0.07,1.46-0.04,1.39-1.35C74.69,75.89,74.64,75.64,74.59,75.23z M64.09,78.04
		c0-0.88,0-1.69,0-2.6c-2.17,0-4.25,0-6.4,0c-0.04,1-0.11,1.97,0.23,2.96C60,78.28,62.01,78.16,64.09,78.04z M17.02,28.56
		c1.33,0.34,2.26,0.24,2.98-0.75c0.41-0.57,0.96-1.03,1.41-1.57c0.91-1.1,1.64-2.31,2.27-3.6c-0.26,0.14-0.49,0.32-0.62,0.55
		c-0.5,0.92-1.29,1.53-2.19,1.99C19.36,25.97,18.36,27.32,17.02,28.56z"/>
</g>
</svg>
